<svg xmlns="http://www.w3.org/2000/svg" xmlns:xlink="http://www.w3.org/1999/xlink" width="1000" zoomAndPan="magnify" viewBox="0 0 750 1124.99995" height="1500" preserveAspectRatio="xMidYMid meet" version="1.0"><defs><g/></defs><rect x="-75" width="900" fill="#ffffff" y="-112.499995" height="1349.99994" fill-opacity="1"/><rect x="-75" width="900" fill="#d5a6af" y="-112.499995" height="1349.99994" fill-opacity="1"/><g fill="#000000" fill-opacity="1"><g transform="translate(179.166184, 1043.748672)"><g><path d="M 1.046875 5.328125 C -0.347656 4.546875 -1.046875 3.484375 -1.046875 2.140625 C -1.046875 0.546875 -0.195312 -1.941406 1.5 -5.328125 C 3.195312 -8.710938 5.453125 -12.609375 8.265625 -17.015625 C 5.773438 -17.222656 3.570312 -17.328125 1.65625 -17.328125 L -0.484375 -17.328125 C 0.285156 -19.441406 2.40625 -20.5 5.875 -20.5 C 6.976562 -20.5 8.445312 -20.359375 10.28125 -20.078125 C 13.425781 -24.804688 16.617188 -29.257812 19.859375 -33.4375 C 23.097656 -37.625 25.660156 -40.597656 27.546875 -42.359375 C 28.722656 -43.492188 29.703125 -44.0625 30.484375 -44.0625 C 31.335938 -44.0625 32.414062 -43.410156 33.71875 -42.109375 C 32.90625 -41.453125 31.722656 -38.804688 30.171875 -34.171875 C 28.617188 -29.546875 27.226562 -24.488281 26 -19 C 24.78125 -13.507812 24.171875 -9.09375 24.171875 -5.75 C 24.171875 -4.125 24.34375 -2.898438 24.6875 -2.078125 C 25.039062 -1.265625 25.625 -0.859375 26.4375 -0.859375 C 28.6875 -0.859375 31.359375 -3.878906 34.453125 -9.921875 L 35.0625 -9.296875 C 33.800781 -5.953125 32.222656 -3.257812 30.328125 -1.21875 C 28.429688 0.820312 26.484375 1.84375 24.484375 1.84375 C 22.847656 1.84375 21.640625 1.117188 20.859375 -0.328125 C 20.085938 -1.785156 19.703125 -3.796875 19.703125 -6.359375 C 19.703125 -8.972656 20.050781 -12.015625 20.75 -15.484375 C 18.132812 -15.890625 15.113281 -16.296875 11.6875 -16.703125 C 7.6875 -9.359375 4.140625 -2.015625 1.046875 5.328125 Z M 21.171875 -17.625 C 22.035156 -21.457031 23.140625 -25.4375 24.484375 -29.5625 C 25.828125 -33.6875 27.171875 -37.234375 28.515625 -40.203125 C 26.679688 -39.066406 24.425781 -36.660156 21.75 -32.984375 C 19.082031 -29.316406 16.257812 -24.832031 13.28125 -19.53125 C 14.914062 -19.195312 16.628906 -18.785156 18.421875 -18.296875 Z M 21.171875 -17.625 "/></g></g></g><g fill="#000000" fill-opacity="1"><g transform="translate(215.390028, 1043.748672)"><g/></g></g><g fill="#000000" fill-opacity="1"><g transform="translate(231.299142, 1043.748672)"><g><path d="M 12.421875 5.328125 C 10.140625 5.328125 8.019531 4.914062 6.0625 4.09375 C 4.101562 3.28125 2.539062 2.046875 1.375 0.390625 C 0.207031 -1.253906 -0.375 -3.257812 -0.375 -5.625 C -0.375 -8.519531 0.421875 -10.609375 2.015625 -11.890625 C 3.609375 -13.179688 5.425781 -13.828125 7.46875 -13.828125 C 6.363281 -12.648438 5.523438 -11.34375 4.953125 -9.90625 C 4.378906 -8.476562 4.09375 -7.050781 4.09375 -5.625 C 4.09375 -3.175781 4.898438 -1.140625 6.515625 0.484375 C 8.128906 2.117188 10.445312 2.9375 13.46875 2.9375 C 15.382812 2.9375 17.207031 2.585938 18.9375 1.890625 C 20.675781 1.203125 22.09375 0.1875 23.1875 -1.15625 C 24.289062 -2.507812 24.84375 -4.125 24.84375 -6 C 24.84375 -7.632812 24.4375 -9.070312 23.625 -10.3125 C 22.8125 -11.550781 21.789062 -12.609375 20.5625 -13.484375 C 19.34375 -14.367188 17.710938 -15.421875 15.671875 -16.640625 C 13.585938 -17.867188 11.921875 -18.941406 10.671875 -19.859375 C 9.429688 -20.773438 8.382812 -21.882812 7.53125 -23.1875 C 6.675781 -24.5 6.25 -26.007812 6.25 -27.71875 C 6.25 -30.09375 6.984375 -32.550781 8.453125 -35.09375 C 9.921875 -37.644531 11.988281 -39.773438 14.65625 -41.484375 C 17.332031 -43.203125 20.34375 -44.0625 23.6875 -44.0625 C 25.925781 -44.0625 27.554688 -43.507812 28.578125 -42.40625 C 29.597656 -41.3125 30.109375 -39.828125 30.109375 -37.953125 C 30.109375 -35.910156 29.617188 -33.625 28.640625 -31.09375 C 27.660156 -28.5625 26.582031 -26.359375 25.40625 -24.484375 C 24.050781 -24.765625 23.375 -25.640625 23.375 -27.109375 C 23.375 -27.890625 23.523438 -28.769531 23.828125 -29.75 C 24.140625 -30.726562 24.582031 -31.953125 25.15625 -33.421875 C 25.769531 -35.003906 26.226562 -36.296875 26.53125 -37.296875 C 26.832031 -38.296875 26.984375 -39.1875 26.984375 -39.96875 C 26.984375 -40.820312 26.726562 -41.472656 26.21875 -41.921875 C 25.707031 -42.367188 24.820312 -42.59375 23.5625 -42.59375 C 21.15625 -42.59375 18.921875 -41.847656 16.859375 -40.359375 C 14.796875 -38.867188 13.148438 -37.0625 11.921875 -34.9375 C 10.703125 -32.820312 10.09375 -30.882812 10.09375 -29.125 C 10.09375 -27.820312 10.445312 -26.660156 11.15625 -25.640625 C 11.875 -24.617188 12.765625 -23.726562 13.828125 -22.96875 C 14.890625 -22.21875 16.335938 -21.332031 18.171875 -20.3125 C 20.378906 -19.050781 22.15625 -17.921875 23.5 -16.921875 C 24.84375 -15.921875 25.992188 -14.65625 26.953125 -13.125 C 27.910156 -11.59375 28.390625 -9.789062 28.390625 -7.71875 C 28.390625 -5.019531 27.601562 -2.691406 26.03125 -0.734375 C 24.46875 1.222656 22.460938 2.722656 20.015625 3.765625 C 17.566406 4.804688 15.035156 5.328125 12.421875 5.328125 Z M 12.421875 5.328125 "/></g></g></g><g fill="#000000" fill-opacity="1"><g transform="translate(264.096357, 1043.748672)"><g><path d="M 19.765625 1.21875 C 18.378906 1.21875 17.316406 0.859375 16.578125 0.140625 C 15.847656 -0.566406 15.484375 -1.507812 15.484375 -2.6875 C 15.484375 -3.21875 15.570312 -3.835938 15.75 -4.546875 C 15.9375 -5.265625 16.132812 -5.972656 16.34375 -6.671875 C 16.582031 -7.398438 16.796875 -8.171875 16.984375 -8.984375 C 17.171875 -9.804688 17.265625 -10.546875 17.265625 -11.203125 C 17.265625 -13.203125 16.445312 -14.203125 14.8125 -14.203125 C 13.257812 -14.203125 11.632812 -13.382812 9.9375 -11.75 C 8.25 -10.113281 6.738281 -8.296875 5.40625 -6.296875 C 4.082031 -4.304688 2.585938 -1.898438 0.921875 0.921875 C 0.222656 0.921875 -0.410156 0.804688 -0.984375 0.578125 C -1.554688 0.359375 -2.003906 0.0234375 -2.328125 -0.421875 C -2.328125 -0.628906 -2.0625 -1.363281 -1.53125 -2.625 C -0.507812 -5.238281 0.320312 -7.613281 0.96875 -9.75 C 1.625 -11.894531 1.972656 -13.804688 2.015625 -15.484375 C 2.304688 -15.804688 2.71875 -16.097656 3.25 -16.359375 C 3.78125 -16.628906 4.304688 -16.765625 4.828125 -16.765625 C 5.929688 -16.765625 6.484375 -16.234375 6.484375 -15.171875 C 6.484375 -14.566406 6.300781 -13.5 5.9375 -11.96875 C 5.570312 -10.4375 5.101562 -8.8125 4.53125 -7.09375 C 6.488281 -10.113281 8.566406 -12.664062 10.765625 -14.75 C 12.972656 -16.832031 15.140625 -17.875 17.265625 -17.875 C 18.773438 -17.875 19.90625 -17.332031 20.65625 -16.25 C 21.40625 -15.164062 21.78125 -13.867188 21.78125 -12.359375 C 21.78125 -11.460938 21.664062 -10.601562 21.4375 -9.78125 C 21.21875 -8.96875 20.882812 -8.035156 20.4375 -6.984375 C 20.070312 -6.078125 19.785156 -5.296875 19.578125 -4.640625 C 19.378906 -3.992188 19.28125 -3.34375 19.28125 -2.6875 C 19.28125 -1.144531 19.890625 -0.375 21.109375 -0.375 C 22.503906 -0.375 23.941406 -1.289062 25.421875 -3.125 C 26.910156 -4.957031 28.332031 -7.222656 29.6875 -9.921875 L 30.359375 -9.125 C 27.421875 -2.226562 23.890625 1.21875 19.765625 1.21875 Z M 19.765625 1.21875 "/></g></g></g><g fill="#000000" fill-opacity="1"><g transform="translate(292.610339, 1043.748672)"><g><path d="M 2.9375 2.875 C 1.59375 2.875 0.503906 2.4375 -0.328125 1.5625 C -1.171875 0.6875 -1.59375 -0.566406 -1.59375 -2.203125 C -1.59375 -4.609375 -0.726562 -7.300781 1 -10.28125 C 2.738281 -13.257812 4.929688 -15.789062 7.578125 -17.875 C 10.234375 -19.957031 12.828125 -21 15.359375 -21 C 16.953125 -21 18.28125 -20.566406 19.34375 -19.703125 C 20.40625 -18.847656 20.9375 -17.75 20.9375 -16.40625 C 20.9375 -15.46875 20.671875 -14.789062 20.140625 -14.375 C 19.609375 -13.96875 18.875 -13.765625 17.9375 -13.765625 C 18.132812 -14.503906 18.234375 -15.21875 18.234375 -15.90625 C 18.234375 -16.925781 17.988281 -17.753906 17.5 -18.390625 C 17.007812 -19.023438 16.253906 -19.34375 15.234375 -19.34375 C 13.441406 -19.34375 11.554688 -18.34375 9.578125 -16.34375 C 7.597656 -14.34375 5.941406 -11.953125 4.609375 -9.171875 C 3.285156 -6.398438 2.625 -4.015625 2.625 -2.015625 C 2.625 -0.421875 3.175781 0.375 4.28125 0.375 C 5.914062 0.375 7.832031 -0.921875 10.03125 -3.515625 C 12.238281 -6.109375 14.609375 -9.257812 17.140625 -12.96875 C 17.671875 -12.894531 18.207031 -12.722656 18.75 -12.453125 C 19.300781 -12.191406 19.578125 -11.851562 19.578125 -11.4375 C 19.578125 -11.113281 19.382812 -10.59375 19 -9.875 C 18.613281 -9.164062 18.378906 -8.75 18.296875 -8.625 C 17.609375 -7.445312 17.054688 -6.394531 16.640625 -5.46875 C 16.234375 -4.550781 16.03125 -3.707031 16.03125 -2.9375 C 16.03125 -2.238281 16.203125 -1.613281 16.546875 -1.0625 C 16.898438 -0.519531 17.421875 -0.25 18.109375 -0.25 C 19.296875 -0.25 20.785156 -1.09375 22.578125 -2.78125 C 24.378906 -4.476562 26.15625 -6.859375 27.90625 -9.921875 L 28.515625 -9.296875 C 27.660156 -7.140625 26.5625 -5.210938 25.21875 -3.515625 C 23.875 -1.828125 22.425781 -0.515625 20.875 0.421875 C 19.320312 1.367188 17.832031 1.84375 16.40625 1.84375 C 14.976562 1.84375 13.882812 1.421875 13.125 0.578125 C 12.375 -0.253906 12 -1.265625 12 -2.453125 C 12 -2.984375 12.054688 -3.570312 12.171875 -4.21875 C 10.335938 -1.769531 8.695312 0.0195312 7.25 1.15625 C 5.800781 2.300781 4.363281 2.875 2.9375 2.875 Z M 2.9375 2.875 "/></g></g></g><g fill="#000000" fill-opacity="1"><g transform="translate(319.288659, 1043.748672)"><g><path d="M -3.859375 17.140625 C -4.179688 17.140625 -4.484375 16.972656 -4.765625 16.640625 C -5.054688 16.316406 -5.300781 15.953125 -5.5 15.546875 C -5.707031 15.140625 -5.789062 14.894531 -5.75 14.8125 C -5.175781 12.851562 -4.484375 10.691406 -3.671875 8.328125 C -2.773438 5.710938 -2.019531 3.320312 -1.40625 1.15625 C -0.789062 -1 -0.148438 -3.921875 0.515625 -7.609375 C 1.191406 -11.304688 1.878906 -16.03125 2.578125 -21.78125 C 2.609375 -22.195312 2.695312 -22.472656 2.84375 -22.609375 C 2.988281 -22.753906 3.285156 -22.828125 3.734375 -22.828125 C 4.710938 -22.828125 5.445312 -22.550781 5.9375 -22 C 6.425781 -21.445312 6.671875 -20.785156 6.671875 -20.015625 C 6.671875 -18.867188 6.203125 -16.113281 5.265625 -11.75 C 6.523438 -14.195312 8.0625 -16.304688 9.875 -18.078125 C 11.695312 -19.859375 13.691406 -20.75 15.859375 -20.75 C 17.648438 -20.75 19.125 -20.101562 20.28125 -18.8125 C 21.445312 -17.53125 22.03125 -15.847656 22.03125 -13.765625 C 22.03125 -11.609375 21.394531 -9.316406 20.125 -6.890625 C 18.863281 -4.460938 17.117188 -2.441406 14.890625 -0.828125 C 12.671875 0.785156 10.238281 1.59375 7.59375 1.59375 C 6.570312 1.59375 5.722656 1.476562 5.046875 1.25 C 4.378906 1.03125 4.046875 0.773438 4.046875 0.484375 C 4.046875 0.367188 4.195312 0.289062 4.5 0.25 C 4.800781 0.207031 5.15625 0.1875 5.5625 0.1875 C 7.6875 0.1875 9.707031 -0.484375 11.625 -1.828125 C 13.539062 -3.179688 15.09375 -4.894531 16.28125 -6.96875 C 17.46875 -9.050781 18.0625 -11.132812 18.0625 -13.21875 C 18.0625 -14.601562 17.765625 -15.734375 17.171875 -16.609375 C 16.578125 -17.492188 15.707031 -17.9375 14.5625 -17.9375 C 13.257812 -17.9375 11.921875 -17.394531 10.546875 -16.3125 C 9.179688 -15.226562 7.957031 -13.921875 6.875 -12.390625 C 5.800781 -10.859375 4.976562 -9.421875 4.40625 -8.078125 C 2.894531 -1.628906 1.4375 3.96875 0.03125 8.71875 C -1.375 13.476562 -2.425781 16.179688 -3.125 16.828125 C -3.320312 17.035156 -3.566406 17.140625 -3.859375 17.140625 Z M -3.859375 17.140625 "/></g></g></g><g fill="#000000" fill-opacity="1"><g transform="translate(343.213486, 1043.748672)"><g><path d="M 6.421875 3.125 C 3.773438 3.125 1.835938 2.328125 0.609375 0.734375 C -0.609375 -0.859375 -1.21875 -2.734375 -1.21875 -4.890625 C -1.21875 -6.523438 -0.929688 -7.675781 -0.359375 -8.34375 C 0.203125 -9.019531 0.820312 -9.5 1.5 -9.78125 C 2.175781 -10.070312 2.570312 -10.28125 2.6875 -10.40625 C 5.300781 -13.257812 7.320312 -16.21875 8.75 -19.28125 L 8.75 -20.015625 C 8.75 -21.398438 8.984375 -22.4375 9.453125 -23.125 C 9.921875 -23.820312 10.484375 -24.171875 11.140625 -24.171875 C 11.460938 -24.171875 11.707031 -24.097656 11.875 -23.953125 C 12.039062 -23.816406 12.125 -23.625 12.125 -23.375 C 12.125 -23.21875 12.0625 -22.882812 11.9375 -22.375 C 11.8125 -21.863281 11.75 -21.300781 11.75 -20.6875 C 11.75 -19.875 11.859375 -19.003906 12.078125 -18.078125 C 12.304688 -17.160156 12.664062 -15.96875 13.15625 -14.5 C 13.726562 -12.75 14.164062 -11.21875 14.46875 -9.90625 C 14.78125 -8.601562 14.9375 -7.28125 14.9375 -5.9375 C 14.9375 -4.875 14.8125 -3.875 14.5625 -2.9375 C 16.03125 -3.1875 17.394531 -3.847656 18.65625 -4.921875 C 19.925781 -6.003906 21.132812 -7.648438 22.28125 -9.859375 L 22.828125 -9.234375 C 22.097656 -7.117188 20.976562 -5.445312 19.46875 -4.21875 C 17.957031 -3 16.222656 -2.242188 14.265625 -1.953125 C 13.648438 -0.285156 12.648438 0.972656 11.265625 1.828125 C 9.878906 2.691406 8.265625 3.125 6.421875 3.125 Z M 10.703125 -3 C 10.867188 -4.0625 10.953125 -5.019531 10.953125 -5.875 C 10.953125 -7.101562 10.847656 -8.328125 10.640625 -9.546875 C 10.441406 -10.773438 10.140625 -12.179688 9.734375 -13.765625 C 9.367188 -15.398438 9.144531 -16.460938 9.0625 -16.953125 C 6.976562 -13.523438 5 -10.875 3.125 -9 C 3.769531 -7.570312 4.753906 -6.304688 6.078125 -5.203125 C 7.410156 -4.097656 8.953125 -3.363281 10.703125 -3 Z M 6.546875 0.984375 C 8.421875 0.984375 9.707031 -0.015625 10.40625 -2.015625 C 8.769531 -2.347656 7.28125 -2.992188 5.9375 -3.953125 C 4.59375 -4.910156 3.570312 -5.957031 2.875 -7.09375 C 1.976562 -7.050781 1.53125 -6.335938 1.53125 -4.953125 C 1.53125 -3.398438 1.988281 -2.019531 2.90625 -0.8125 C 3.820312 0.382812 5.035156 0.984375 6.546875 0.984375 Z M 6.546875 0.984375 "/></g></g></g><g fill="#000000" fill-opacity="1"><g transform="translate(364.323665, 1043.748672)"><g><path d="M 2.875 2.328125 C 2.144531 2.328125 1.546875 1.691406 1.078125 0.421875 C 0.609375 -0.835938 0.375 -2.328125 0.375 -4.046875 C 0.375 -7.796875 1.523438 -12.851562 3.828125 -19.21875 C 6.128906 -25.582031 8.75 -31.253906 11.6875 -36.234375 C 14.625 -41.210938 16.953125 -43.703125 18.671875 -43.703125 C 19.316406 -43.703125 19.8125 -43.300781 20.15625 -42.5 C 20.507812 -41.707031 20.6875 -40.820312 20.6875 -39.84375 C 20.6875 -37.925781 20.003906 -35.375 18.640625 -32.1875 C 17.273438 -29.007812 15.5 -25.953125 13.3125 -23.015625 C 11.125 -20.078125 8.890625 -17.914062 6.609375 -16.53125 C 5.878906 -14.8125 5.316406 -12.816406 4.921875 -10.546875 C 4.535156 -8.285156 4.34375 -6.257812 4.34375 -4.46875 C 4.34375 -3.8125 4.382812 -3.117188 4.46875 -2.390625 C 6.101562 -7.117188 7.945312 -10.941406 10 -13.859375 C 12.0625 -16.773438 14.359375 -18.234375 16.890625 -18.234375 C 18.441406 -18.234375 19.601562 -17.691406 20.375 -16.609375 C 21.15625 -15.535156 21.546875 -14.242188 21.546875 -12.734375 C 21.546875 -11.835938 21.429688 -10.976562 21.203125 -10.15625 C 20.984375 -9.34375 20.628906 -8.285156 20.140625 -6.984375 C 19.734375 -5.878906 19.425781 -5 19.21875 -4.34375 C 19.007812 -3.6875 18.90625 -3.054688 18.90625 -2.453125 C 18.90625 -1.671875 19.066406 -1.085938 19.390625 -0.703125 C 19.722656 -0.316406 20.175781 -0.125 20.75 -0.125 C 22.132812 -0.125 23.765625 -1.09375 25.640625 -3.03125 C 27.515625 -4.96875 29.066406 -7.265625 30.296875 -9.921875 L 31.09375 -9.1875 C 29.75 -6.082031 28.023438 -3.53125 25.921875 -1.53125 C 23.816406 0.46875 21.625 1.46875 19.34375 1.46875 C 18 1.46875 16.957031 1.109375 16.21875 0.390625 C 15.488281 -0.316406 15.125 -1.242188 15.125 -2.390625 C 15.125 -3.285156 15.425781 -4.734375 16.03125 -6.734375 C 16.6875 -8.929688 17.015625 -10.5625 17.015625 -11.625 C 17.015625 -12.644531 16.800781 -13.390625 16.375 -13.859375 C 15.945312 -14.328125 15.382812 -14.5625 14.6875 -14.5625 C 13.175781 -14.5625 11.859375 -13.671875 10.734375 -11.890625 C 9.617188 -10.117188 8.40625 -7.625 7.09375 -4.40625 C 6.113281 -2.039062 5.335938 -0.328125 4.765625 0.734375 C 4.203125 1.796875 3.570312 2.328125 2.875 2.328125 Z M 7.40625 -18.90625 C 9.15625 -20.300781 10.894531 -22.3125 12.625 -24.9375 C 14.363281 -27.570312 15.796875 -30.179688 16.921875 -32.765625 C 18.046875 -35.359375 18.609375 -37.1875 18.609375 -38.25 C 18.609375 -38.570312 18.523438 -38.734375 18.359375 -38.734375 C 17.910156 -38.734375 16.984375 -37.722656 15.578125 -35.703125 C 14.171875 -33.691406 12.691406 -31.15625 11.140625 -28.09375 C 9.585938 -25.03125 8.34375 -21.96875 7.40625 -18.90625 Z M 7.40625 -18.90625 "/></g></g></g><g fill="#000000" fill-opacity="1"><g transform="translate(393.449557, 1043.748672)"><g><path d="M 4.21875 1.953125 C 2.550781 1.953125 1.328125 1.441406 0.546875 0.421875 C -0.222656 -0.597656 -0.609375 -1.941406 -0.609375 -3.609375 C -0.609375 -5.285156 -0.265625 -7.039062 0.421875 -8.875 C 1.117188 -10.707031 2.019531 -12.234375 3.125 -13.453125 C 4.226562 -14.679688 5.328125 -15.296875 6.421875 -15.296875 C 6.796875 -15.296875 7.226562 -15.195312 7.71875 -15 C 7.226562 -14.582031 6.632812 -13.679688 5.9375 -12.296875 C 5.238281 -10.910156 4.632812 -9.429688 4.125 -7.859375 C 3.613281 -6.296875 3.359375 -5.023438 3.359375 -4.046875 C 3.359375 -1.710938 4.09375 -0.546875 5.5625 -0.546875 C 6.425781 -0.546875 7.445312 -0.992188 8.625 -1.890625 C 9.8125 -2.796875 10.976562 -3.984375 12.125 -5.453125 C 10.976562 -6.390625 10.085938 -7.613281 9.453125 -9.125 C 8.816406 -10.632812 8.5 -12.203125 8.5 -13.828125 C 8.5 -15.953125 9.039062 -17.769531 10.125 -19.28125 C 11.207031 -20.789062 12.664062 -21.546875 14.5 -21.546875 C 16.050781 -21.546875 17.144531 -21.125 17.78125 -20.28125 C 18.414062 -19.445312 18.734375 -18.296875 18.734375 -16.828125 C 18.734375 -15.273438 18.351562 -13.53125 17.59375 -11.59375 C 16.84375 -9.65625 15.851562 -7.769531 14.625 -5.9375 C 15.363281 -5.53125 16.140625 -5.328125 16.953125 -5.328125 C 18.140625 -5.328125 19.363281 -5.679688 20.625 -6.390625 C 21.882812 -7.109375 22.84375 -8.222656 23.5 -9.734375 L 24.234375 -9.125 C 23.460938 -7.320312 22.363281 -5.992188 20.9375 -5.140625 C 19.507812 -4.285156 18.039062 -3.859375 16.53125 -3.859375 C 15.425781 -3.859375 14.445312 -4.0625 13.59375 -4.46875 C 12.125 -2.550781 10.5625 -1.003906 8.90625 0.171875 C 7.25 1.359375 5.6875 1.953125 4.21875 1.953125 Z M 13.21875 -7.03125 C 14.28125 -8.625 15.132812 -10.242188 15.78125 -11.890625 C 16.4375 -13.546875 16.765625 -15.070312 16.765625 -16.46875 C 16.765625 -17.601562 16.59375 -18.457031 16.25 -19.03125 C 15.90625 -19.601562 15.46875 -19.890625 14.9375 -19.890625 C 14.363281 -19.890625 13.78125 -19.613281 13.1875 -19.0625 C 12.59375 -18.507812 12.101562 -17.753906 11.71875 -16.796875 C 11.332031 -15.835938 11.140625 -14.785156 11.140625 -13.640625 C 11.140625 -12.378906 11.3125 -11.164062 11.65625 -10 C 12 -8.84375 12.519531 -7.851562 13.21875 -7.03125 Z M 13.21875 -7.03125 "/></g></g></g><g fill="#000000" fill-opacity="1"><g transform="translate(415.783487, 1043.748672)"><g><path d="M 5.203125 2.8125 C 1.566406 2.8125 -0.25 0.789062 -0.25 -3.25 C -0.25 -5 0.0664062 -7.164062 0.703125 -9.75 C 1.335938 -12.34375 2.207031 -15.09375 3.3125 -18 C 2.332031 -18.15625 1.597656 -18.316406 1.109375 -18.484375 L 1.109375 -19.578125 C 2.578125 -19.421875 3.472656 -19.34375 3.796875 -19.34375 C 5.585938 -23.988281 7.515625 -28.015625 9.578125 -31.421875 C 11.640625 -34.828125 13.257812 -36.53125 14.4375 -36.53125 C 14.769531 -36.53125 15.066406 -36.40625 15.328125 -36.15625 C 15.597656 -35.914062 15.734375 -35.59375 15.734375 -35.1875 C 15.734375 -34.65625 15.476562 -33.878906 14.96875 -32.859375 C 14.457031 -31.847656 13.585938 -30.28125 12.359375 -28.15625 C 12.160156 -27.75 11.53125 -26.613281 10.46875 -24.75 C 9.40625 -22.894531 8.445312 -21.03125 7.59375 -19.15625 L 9.859375 -19.15625 C 13.242188 -19.15625 16.160156 -19.28125 18.609375 -19.53125 L 18.609375 -18.421875 C 14.160156 -17.929688 10.566406 -17.6875 7.828125 -17.6875 L 6.921875 -17.6875 C 4.671875 -12.539062 3.546875 -8.09375 3.546875 -4.34375 C 3.546875 -2.59375 3.8125 -1.335938 4.34375 -0.578125 C 4.875 0.171875 5.753906 0.546875 6.984375 0.546875 C 9.054688 0.546875 11.113281 -0.378906 13.15625 -2.234375 C 15.195312 -4.085938 17.015625 -6.648438 18.609375 -9.921875 L 19.40625 -9.296875 C 17.894531 -5.753906 15.851562 -2.847656 13.28125 -0.578125 C 10.707031 1.679688 8.015625 2.8125 5.203125 2.8125 Z M 5.203125 2.8125 "/></g></g></g><g fill="#000000" fill-opacity="1"><g transform="translate(433.222342, 1043.748672)"><g/></g></g><g fill="#000000" fill-opacity="1"><g transform="translate(449.131456, 1043.748672)"><g><path d="M 4.21875 1.953125 C 2.550781 1.953125 1.328125 1.441406 0.546875 0.421875 C -0.222656 -0.597656 -0.609375 -1.941406 -0.609375 -3.609375 C -0.609375 -5.285156 -0.265625 -7.039062 0.421875 -8.875 C 1.117188 -10.707031 2.019531 -12.234375 3.125 -13.453125 C 4.226562 -14.679688 5.328125 -15.296875 6.421875 -15.296875 C 6.796875 -15.296875 7.226562 -15.195312 7.71875 -15 C 7.226562 -14.582031 6.632812 -13.679688 5.9375 -12.296875 C 5.238281 -10.910156 4.632812 -9.429688 4.125 -7.859375 C 3.613281 -6.296875 3.359375 -5.023438 3.359375 -4.046875 C 3.359375 -1.710938 4.09375 -0.546875 5.5625 -0.546875 C 6.425781 -0.546875 7.445312 -0.992188 8.625 -1.890625 C 9.8125 -2.796875 10.976562 -3.984375 12.125 -5.453125 C 10.976562 -6.390625 10.085938 -7.613281 9.453125 -9.125 C 8.816406 -10.632812 8.5 -12.203125 8.5 -13.828125 C 8.5 -15.953125 9.039062 -17.769531 10.125 -19.28125 C 11.207031 -20.789062 12.664062 -21.546875 14.5 -21.546875 C 16.050781 -21.546875 17.144531 -21.125 17.78125 -20.28125 C 18.414062 -19.445312 18.734375 -18.296875 18.734375 -16.828125 C 18.734375 -15.273438 18.351562 -13.53125 17.59375 -11.59375 C 16.84375 -9.65625 15.851562 -7.769531 14.625 -5.9375 C 15.363281 -5.53125 16.140625 -5.328125 16.953125 -5.328125 C 18.140625 -5.328125 19.363281 -5.679688 20.625 -6.390625 C 21.882812 -7.109375 22.84375 -8.222656 23.5 -9.734375 L 24.234375 -9.125 C 23.460938 -7.320312 22.363281 -5.992188 20.9375 -5.140625 C 19.507812 -4.285156 18.039062 -3.859375 16.53125 -3.859375 C 15.425781 -3.859375 14.445312 -4.0625 13.59375 -4.46875 C 12.125 -2.550781 10.5625 -1.003906 8.90625 0.171875 C 7.25 1.359375 5.6875 1.953125 4.21875 1.953125 Z M 13.21875 -7.03125 C 14.28125 -8.625 15.132812 -10.242188 15.78125 -11.890625 C 16.4375 -13.546875 16.765625 -15.070312 16.765625 -16.46875 C 16.765625 -17.601562 16.59375 -18.457031 16.25 -19.03125 C 15.90625 -19.601562 15.46875 -19.890625 14.9375 -19.890625 C 14.363281 -19.890625 13.78125 -19.613281 13.1875 -19.0625 C 12.59375 -18.507812 12.101562 -17.753906 11.71875 -16.796875 C 11.332031 -15.835938 11.140625 -14.785156 11.140625 -13.640625 C 11.140625 -12.378906 11.3125 -11.164062 11.65625 -10 C 12 -8.84375 12.519531 -7.851562 13.21875 -7.03125 Z M 13.21875 -7.03125 "/></g></g></g><g fill="#000000" fill-opacity="1"><g transform="translate(471.465386, 1043.748672)"><g><path d="M -0.796875 17.140625 C -1.648438 17.140625 -2.421875 16.738281 -3.109375 15.9375 C -3.804688 15.144531 -4.15625 13.75 -4.15625 11.75 C -4.15625 7.46875 -2.628906 0.726562 0.421875 -8.46875 C 3.484375 -17.675781 7.066406 -25.910156 11.171875 -33.171875 C 15.273438 -40.429688 18.894531 -44.0625 22.03125 -44.0625 C 22.8125 -44.0625 23.351562 -43.828125 23.65625 -43.359375 C 23.957031 -42.890625 24.109375 -42.226562 24.109375 -41.375 C 24.109375 -39.125 23.3125 -36.570312 21.71875 -33.71875 C 20.132812 -30.863281 18.078125 -28.066406 15.546875 -25.328125 C 13.015625 -22.597656 10.421875 -20.316406 7.765625 -18.484375 C 7.484375 -17.828125 7.097656 -16.804688 6.609375 -15.421875 C 7.015625 -15.335938 7.347656 -15.101562 7.609375 -14.71875 C 7.878906 -14.332031 8.054688 -13.914062 8.140625 -13.46875 C 8.460938 -11.175781 8.785156 -9.398438 9.109375 -8.140625 C 9.441406 -6.878906 9.941406 -5.859375 10.609375 -5.078125 C 11.285156 -4.304688 12.238281 -3.921875 13.46875 -3.921875 C 14.8125 -3.921875 15.960938 -4.390625 16.921875 -5.328125 C 17.878906 -6.265625 18.992188 -7.796875 20.265625 -9.921875 L 21.171875 -9.296875 C 20.191406 -7.015625 18.945312 -5.28125 17.4375 -4.09375 C 15.925781 -2.914062 14.5 -2.328125 13.15625 -2.328125 C 12.425781 -2.328125 11.660156 -2.507812 10.859375 -2.875 C 10.066406 -3.238281 9.320312 -3.726562 8.625 -4.34375 C 8.625 -1 8.15625 2.34375 7.21875 5.6875 C 6.28125 9.03125 5.085938 11.773438 3.640625 13.921875 C 2.191406 16.066406 0.710938 17.140625 -0.796875 17.140625 Z M 8.75 -21 C 11.238281 -23.28125 13.472656 -25.664062 15.453125 -28.15625 C 17.429688 -30.644531 18.972656 -32.878906 20.078125 -34.859375 C 21.179688 -36.835938 21.734375 -38.253906 21.734375 -39.109375 C 21.734375 -39.679688 21.445312 -39.96875 20.875 -39.96875 C 19.363281 -39.96875 17.523438 -38.203125 15.359375 -34.671875 C 13.203125 -31.140625 11 -26.582031 8.75 -21 Z M 0.796875 14.203125 C 1.523438 14.203125 2.390625 13.160156 3.390625 11.078125 C 4.390625 8.992188 5.242188 6.535156 5.953125 3.703125 C 6.671875 0.867188 7.03125 -1.585938 7.03125 -3.671875 C 7.03125 -4.898438 6.878906 -6.019531 6.578125 -7.03125 C 6.273438 -8.050781 5.734375 -9.316406 4.953125 -10.828125 C 3.367188 -6.140625 2.082031 -1.796875 1.09375 2.203125 C 0.113281 6.203125 -0.375 9.222656 -0.375 11.265625 C -0.375 12.203125 -0.269531 12.925781 -0.0625 13.4375 C 0.144531 13.945312 0.429688 14.203125 0.796875 14.203125 Z M 0.796875 14.203125 "/></g></g></g><g fill="#000000" fill-opacity="1"><g transform="translate(490.556295, 1043.748672)"><g/></g></g><g fill="#000000" fill-opacity="1"><g transform="translate(506.465409, 1043.748672)"><g><path d="M 33.109375 6.0625 C 31.640625 6.0625 30.445312 5.425781 29.53125 4.15625 C 28.613281 2.894531 28.15625 1.367188 28.15625 -0.421875 C 28.15625 -1.691406 28.335938 -3.550781 28.703125 -6 C 25.234375 1.550781 20.828125 5.328125 15.484375 5.328125 C 12.953125 5.328125 10.992188 4.550781 9.609375 3 C 8.222656 1.445312 7.53125 -0.550781 7.53125 -3 C 7.53125 -4.675781 7.820312 -6.707031 8.40625 -9.09375 C 9 -11.476562 9.910156 -14.710938 11.140625 -18.796875 C 12.484375 -23.316406 13.488281 -26.941406 14.15625 -29.671875 C 14.832031 -32.410156 15.171875 -34.84375 15.171875 -36.96875 C 15.171875 -40.5625 14.03125 -42.359375 11.75 -42.359375 C 10.363281 -42.359375 9.179688 -41.785156 8.203125 -40.640625 C 7.222656 -39.492188 6.488281 -38.09375 6 -36.4375 C 5.507812 -34.789062 5.265625 -33.234375 5.265625 -31.765625 C 5.265625 -30.535156 5.425781 -29.535156 5.75 -28.765625 C 4.28125 -28.765625 3.207031 -29.148438 2.53125 -29.921875 C 1.863281 -30.703125 1.53125 -31.722656 1.53125 -32.984375 C 1.53125 -34.703125 2.070312 -36.414062 3.15625 -38.125 C 4.238281 -39.84375 5.675781 -41.257812 7.46875 -42.375 C 9.257812 -43.5 11.175781 -44.0625 13.21875 -44.0625 C 15.382812 -44.0625 16.976562 -43.410156 18 -42.109375 C 19.019531 -40.804688 19.53125 -38.988281 19.53125 -36.65625 C 19.53125 -34.613281 19.210938 -32.347656 18.578125 -29.859375 C 17.941406 -27.378906 16.972656 -24.054688 15.671875 -19.890625 C 14.441406 -15.929688 13.519531 -12.757812 12.90625 -10.375 C 12.300781 -7.988281 12 -5.859375 12 -3.984375 C 12 -1.941406 12.414062 -0.289062 13.25 0.96875 C 14.082031 2.238281 15.378906 2.875 17.140625 2.875 C 19.222656 2.875 21.117188 2.003906 22.828125 0.265625 C 24.546875 -1.460938 25.984375 -3.59375 27.140625 -6.125 C 28.304688 -8.65625 29.195312 -11.179688 29.8125 -13.703125 C 32.007812 -22.765625 33.972656 -30.085938 35.703125 -35.671875 C 37.441406 -41.265625 39.023438 -44.0625 40.453125 -44.0625 C 40.773438 -44.0625 41.222656 -43.890625 41.796875 -43.546875 C 42.367188 -43.203125 42.941406 -42.722656 43.515625 -42.109375 C 42.773438 -41.617188 41.46875 -38.789062 39.59375 -33.625 C 37.71875 -28.46875 36.023438 -22.890625 34.515625 -16.890625 C 33.003906 -10.890625 32.25 -6.117188 32.25 -2.578125 C 32.25 0.160156 32.613281 2.039062 33.34375 3.0625 C 34.082031 4.082031 35.351562 4.59375 37.15625 4.59375 C 35.726562 5.570312 34.378906 6.0625 33.109375 6.0625 Z M 33.109375 6.0625 "/></g></g></g><g fill="#000000" fill-opacity="1"><g transform="translate(549.664754, 1043.748672)"><g><path d="M 6.421875 3.125 C 3.773438 3.125 1.835938 2.328125 0.609375 0.734375 C -0.609375 -0.859375 -1.21875 -2.734375 -1.21875 -4.890625 C -1.21875 -6.523438 -0.929688 -7.675781 -0.359375 -8.34375 C 0.203125 -9.019531 0.820312 -9.5 1.5 -9.78125 C 2.175781 -10.070312 2.570312 -10.28125 2.6875 -10.40625 C 5.300781 -13.257812 7.320312 -16.21875 8.75 -19.28125 L 8.75 -20.015625 C 8.75 -21.398438 8.984375 -22.4375 9.453125 -23.125 C 9.921875 -23.820312 10.484375 -24.171875 11.140625 -24.171875 C 11.460938 -24.171875 11.707031 -24.097656 11.875 -23.953125 C 12.039062 -23.816406 12.125 -23.625 12.125 -23.375 C 12.125 -23.21875 12.0625 -22.882812 11.9375 -22.375 C 11.8125 -21.863281 11.75 -21.300781 11.75 -20.6875 C 11.75 -19.875 11.859375 -19.003906 12.078125 -18.078125 C 12.304688 -17.160156 12.664062 -15.96875 13.15625 -14.5 C 13.726562 -12.75 14.164062 -11.21875 14.46875 -9.90625 C 14.78125 -8.601562 14.9375 -7.28125 14.9375 -5.9375 C 14.9375 -4.875 14.8125 -3.875 14.5625 -2.9375 C 16.03125 -3.1875 17.394531 -3.847656 18.65625 -4.921875 C 19.925781 -6.003906 21.132812 -7.648438 22.28125 -9.859375 L 22.828125 -9.234375 C 22.097656 -7.117188 20.976562 -5.445312 19.46875 -4.21875 C 17.957031 -3 16.222656 -2.242188 14.265625 -1.953125 C 13.648438 -0.285156 12.648438 0.972656 11.265625 1.828125 C 9.878906 2.691406 8.265625 3.125 6.421875 3.125 Z M 10.703125 -3 C 10.867188 -4.0625 10.953125 -5.019531 10.953125 -5.875 C 10.953125 -7.101562 10.847656 -8.328125 10.640625 -9.546875 C 10.441406 -10.773438 10.140625 -12.179688 9.734375 -13.765625 C 9.367188 -15.398438 9.144531 -16.460938 9.0625 -16.953125 C 6.976562 -13.523438 5 -10.875 3.125 -9 C 3.769531 -7.570312 4.753906 -6.304688 6.078125 -5.203125 C 7.410156 -4.097656 8.953125 -3.363281 10.703125 -3 Z M 6.546875 0.984375 C 8.421875 0.984375 9.707031 -0.015625 10.40625 -2.015625 C 8.769531 -2.347656 7.28125 -2.992188 5.9375 -3.953125 C 4.59375 -4.910156 3.570312 -5.957031 2.875 -7.09375 C 1.976562 -7.050781 1.53125 -6.335938 1.53125 -4.953125 C 1.53125 -3.398438 1.988281 -2.019531 2.90625 -0.8125 C 3.820312 0.382812 5.035156 0.984375 6.546875 0.984375 Z M 6.546875 0.984375 "/></g></g></g><g fill="#000000" fill-opacity="1"><g transform="translate(269.845834, 1097.948107)"><g><path d="M 3.5 -10.453125 L 3.5 -6.296875 L 9.484375 -6.296875 L 9.484375 -4.828125 L 3.5 -4.828125 L 3.5 0 L 1.796875 0 L 1.796875 -11.9375 L 10.21875 -11.9375 L 10.21875 -10.453125 Z M 3.5 -10.453125 "/></g></g></g><g fill="#000000" fill-opacity="1"><g transform="translate(280.665435, 1097.948107)"><g><path d="M 7.171875 0.140625 C 5.972656 0.140625 4.890625 -0.125 3.921875 -0.65625 C 2.953125 -1.1875 2.191406 -1.914062 1.640625 -2.84375 C 1.085938 -3.78125 0.8125 -4.820312 0.8125 -5.96875 C 0.8125 -7.113281 1.085938 -8.148438 1.640625 -9.078125 C 2.191406 -10.015625 2.953125 -10.742188 3.921875 -11.265625 C 4.890625 -11.796875 5.972656 -12.0625 7.171875 -12.0625 C 8.367188 -12.0625 9.445312 -11.796875 10.40625 -11.265625 C 11.375 -10.742188 12.128906 -10.019531 12.671875 -9.09375 C 13.222656 -8.164062 13.5 -7.125 13.5 -5.96875 C 13.5 -4.8125 13.222656 -3.769531 12.671875 -2.84375 C 12.128906 -1.914062 11.375 -1.1875 10.40625 -0.65625 C 9.445312 -0.125 8.367188 0.140625 7.171875 0.140625 Z M 7.171875 -1.375 C 8.046875 -1.375 8.832031 -1.570312 9.53125 -1.96875 C 10.238281 -2.375 10.789062 -2.925781 11.1875 -3.625 C 11.59375 -4.320312 11.796875 -5.101562 11.796875 -5.96875 C 11.796875 -6.832031 11.59375 -7.613281 11.1875 -8.3125 C 10.789062 -9.007812 10.238281 -9.554688 9.53125 -9.953125 C 8.832031 -10.347656 8.046875 -10.546875 7.171875 -10.546875 C 6.296875 -10.546875 5.503906 -10.347656 4.796875 -9.953125 C 4.085938 -9.554688 3.53125 -9.007812 3.125 -8.3125 C 2.71875 -7.613281 2.515625 -6.832031 2.515625 -5.96875 C 2.515625 -5.101562 2.71875 -4.320312 3.125 -3.625 C 3.53125 -2.925781 4.085938 -2.375 4.796875 -1.96875 C 5.503906 -1.570312 6.296875 -1.375 7.171875 -1.375 Z M 7.171875 -1.375 "/></g></g></g><g fill="#000000" fill-opacity="1"><g transform="translate(294.977974, 1097.948107)"><g><path d="M 9.765625 0 L 7.1875 -3.671875 C 6.875 -3.640625 6.625 -3.625 6.4375 -3.625 L 3.5 -3.625 L 3.5 0 L 1.796875 0 L 1.796875 -11.9375 L 6.4375 -11.9375 C 7.988281 -11.9375 9.207031 -11.566406 10.09375 -10.828125 C 10.976562 -10.085938 11.421875 -9.066406 11.421875 -7.765625 C 11.421875 -6.847656 11.191406 -6.066406 10.734375 -5.421875 C 10.285156 -4.773438 9.640625 -4.300781 8.796875 -4 L 11.625 0 Z M 6.390625 -5.078125 C 7.472656 -5.078125 8.296875 -5.3125 8.859375 -5.78125 C 9.429688 -6.25 9.71875 -6.910156 9.71875 -7.765625 C 9.71875 -8.628906 9.429688 -9.289062 8.859375 -9.75 C 8.296875 -10.21875 7.472656 -10.453125 6.390625 -10.453125 L 3.5 -10.453125 L 3.5 -5.078125 Z M 6.390625 -5.078125 "/></g></g></g><g fill="#000000" fill-opacity="1"><g transform="translate(307.365136, 1097.948107)"><g><path d="M 10.453125 -1.484375 L 10.453125 0 L 1.796875 0 L 1.796875 -11.9375 L 10.21875 -11.9375 L 10.21875 -10.453125 L 3.5 -10.453125 L 3.5 -6.78125 L 9.484375 -6.78125 L 9.484375 -5.328125 L 3.5 -5.328125 L 3.5 -1.484375 Z M 10.453125 -1.484375 "/></g></g></g><g fill="#000000" fill-opacity="1"><g transform="translate(318.781085, 1097.948107)"><g><path d="M 12.15625 -11.9375 L 6.921875 0 L 5.234375 0 L -0.015625 -11.9375 L 1.828125 -11.9375 L 6.125 -2.125 L 10.453125 -11.9375 Z M 12.15625 -11.9375 "/></g></g></g><g fill="#000000" fill-opacity="1"><g transform="translate(330.912666, 1097.948107)"><g><path d="M 10.453125 -1.484375 L 10.453125 0 L 1.796875 0 L 1.796875 -11.9375 L 10.21875 -11.9375 L 10.21875 -10.453125 L 3.5 -10.453125 L 3.5 -6.78125 L 9.484375 -6.78125 L 9.484375 -5.328125 L 3.5 -5.328125 L 3.5 -1.484375 Z M 10.453125 -1.484375 "/></g></g></g><g fill="#000000" fill-opacity="1"><g transform="translate(342.328615, 1097.948107)"><g><path d="M 9.765625 0 L 7.1875 -3.671875 C 6.875 -3.640625 6.625 -3.625 6.4375 -3.625 L 3.5 -3.625 L 3.5 0 L 1.796875 0 L 1.796875 -11.9375 L 6.4375 -11.9375 C 7.988281 -11.9375 9.207031 -11.566406 10.09375 -10.828125 C 10.976562 -10.085938 11.421875 -9.066406 11.421875 -7.765625 C 11.421875 -6.847656 11.191406 -6.066406 10.734375 -5.421875 C 10.285156 -4.773438 9.640625 -4.300781 8.796875 -4 L 11.625 0 Z M 6.390625 -5.078125 C 7.472656 -5.078125 8.296875 -5.3125 8.859375 -5.78125 C 9.429688 -6.25 9.71875 -6.910156 9.71875 -7.765625 C 9.71875 -8.628906 9.429688 -9.289062 8.859375 -9.75 C 8.296875 -10.21875 7.472656 -10.453125 6.390625 -10.453125 L 3.5 -10.453125 L 3.5 -5.078125 Z M 6.390625 -5.078125 "/></g></g></g><g fill="#000000" fill-opacity="1"><g transform="translate(354.715777, 1097.948107)"><g/></g></g><g fill="#000000" fill-opacity="1"><g transform="translate(359.299194, 1097.948107)"><g><path d="M 9.390625 -2.984375 L 3.046875 -2.984375 L 1.734375 0 L -0.015625 0 L 5.390625 -11.9375 L 7.078125 -11.9375 L 12.5 0 L 10.703125 0 Z M 8.796875 -4.34375 L 6.21875 -10.1875 L 3.640625 -4.34375 Z M 8.796875 -4.34375 "/></g></g></g><g fill="#000000" fill-opacity="1"><g transform="translate(371.771543, 1097.948107)"><g><path d="M 12.046875 -11.9375 L 12.046875 0 L 10.65625 0 L 3.5 -8.90625 L 3.5 0 L 1.796875 0 L 1.796875 -11.9375 L 3.1875 -11.9375 L 10.34375 -3.03125 L 10.34375 -11.9375 Z M 12.046875 -11.9375 "/></g></g></g><g fill="#000000" fill-opacity="1"><g transform="translate(385.607, 1097.948107)"><g><path d="M 1.796875 -11.9375 L 6.8125 -11.9375 C 8.082031 -11.9375 9.203125 -11.6875 10.171875 -11.1875 C 11.148438 -10.6875 11.910156 -9.984375 12.453125 -9.078125 C 12.992188 -8.171875 13.265625 -7.132812 13.265625 -5.96875 C 13.265625 -4.789062 12.992188 -3.75 12.453125 -2.84375 C 11.910156 -1.945312 11.148438 -1.25 10.171875 -0.75 C 9.203125 -0.25 8.082031 0 6.8125 0 L 1.796875 0 Z M 6.71875 -1.484375 C 7.6875 -1.484375 8.535156 -1.671875 9.265625 -2.046875 C 9.992188 -2.421875 10.554688 -2.945312 10.953125 -3.625 C 11.359375 -4.300781 11.5625 -5.082031 11.5625 -5.96875 C 11.5625 -6.851562 11.359375 -7.632812 10.953125 -8.3125 C 10.554688 -8.988281 9.992188 -9.515625 9.265625 -9.890625 C 8.535156 -10.265625 7.6875 -10.453125 6.71875 -10.453125 L 3.5 -10.453125 L 3.5 -1.484375 Z M 6.71875 -1.484375 "/></g></g></g><g fill="#000000" fill-opacity="1"><g transform="translate(399.680988, 1097.948107)"><g/></g></g><g fill="#000000" fill-opacity="1"><g transform="translate(404.264405, 1097.948107)"><g><path d="M 9.390625 -2.984375 L 3.046875 -2.984375 L 1.734375 0 L -0.015625 0 L 5.390625 -11.9375 L 7.078125 -11.9375 L 12.5 0 L 10.703125 0 Z M 8.796875 -4.34375 L 6.21875 -10.1875 L 3.640625 -4.34375 Z M 8.796875 -4.34375 "/></g></g></g><g fill="#000000" fill-opacity="1"><g transform="translate(416.736754, 1097.948107)"><g><path d="M 1.796875 -11.9375 L 3.5 -11.9375 L 3.5 -1.484375 L 9.953125 -1.484375 L 9.953125 0 L 1.796875 0 Z M 1.796875 -11.9375 "/></g></g></g><g fill="#000000" fill-opacity="1"><g transform="translate(426.857751, 1097.948107)"><g><path d="M 18.65625 -11.9375 L 14.65625 0 L 12.875 0 L 9.609375 -9.53125 L 6.359375 0 L 4.53125 0 L 0.546875 -11.9375 L 2.296875 -11.9375 L 5.515625 -2.234375 L 8.875 -11.9375 L 10.453125 -11.9375 L 13.734375 -2.1875 L 17.03125 -11.9375 Z M 18.65625 -11.9375 "/></g></g></g><g fill="#000000" fill-opacity="1"><g transform="translate(446.043366, 1097.948107)"><g><path d="M 9.390625 -2.984375 L 3.046875 -2.984375 L 1.734375 0 L -0.015625 0 L 5.390625 -11.9375 L 7.078125 -11.9375 L 12.5 0 L 10.703125 0 Z M 8.796875 -4.34375 L 6.21875 -10.1875 L 3.640625 -4.34375 Z M 8.796875 -4.34375 "/></g></g></g><g fill="#000000" fill-opacity="1"><g transform="translate(458.515715, 1097.948107)"><g><path d="M 6.359375 -4.125 L 6.359375 0 L 4.671875 0 L 4.671875 -4.15625 L -0.0625 -11.9375 L 1.75 -11.9375 L 5.578125 -5.640625 L 9.40625 -11.9375 L 11.09375 -11.9375 Z M 6.359375 -4.125 "/></g></g></g><g fill="#000000" fill-opacity="1"><g transform="translate(469.539769, 1097.948107)"><g><path d="M 5.265625 0.140625 C 4.367188 0.140625 3.503906 0 2.671875 -0.28125 C 1.835938 -0.5625 1.179688 -0.921875 0.703125 -1.359375 L 1.328125 -2.6875 C 1.785156 -2.28125 2.367188 -1.945312 3.078125 -1.6875 C 3.785156 -1.4375 4.515625 -1.3125 5.265625 -1.3125 C 6.253906 -1.3125 6.992188 -1.476562 7.484375 -1.8125 C 7.972656 -2.144531 8.21875 -2.59375 8.21875 -3.15625 C 8.21875 -3.5625 8.082031 -3.890625 7.8125 -4.140625 C 7.550781 -4.398438 7.222656 -4.597656 6.828125 -4.734375 C 6.429688 -4.867188 5.878906 -5.023438 5.171875 -5.203125 C 4.265625 -5.410156 3.535156 -5.625 2.984375 -5.84375 C 2.441406 -6.0625 1.972656 -6.394531 1.578125 -6.84375 C 1.179688 -7.289062 0.984375 -7.894531 0.984375 -8.65625 C 0.984375 -9.289062 1.148438 -9.863281 1.484375 -10.375 C 1.828125 -10.894531 2.335938 -11.304688 3.015625 -11.609375 C 3.703125 -11.910156 4.550781 -12.0625 5.5625 -12.0625 C 6.257812 -12.0625 6.945312 -11.972656 7.625 -11.796875 C 8.3125 -11.617188 8.898438 -11.359375 9.390625 -11.015625 L 8.828125 -9.65625 C 8.328125 -9.96875 7.789062 -10.207031 7.21875 -10.375 C 6.65625 -10.539062 6.101562 -10.625 5.5625 -10.625 C 4.59375 -10.625 3.863281 -10.445312 3.375 -10.09375 C 2.894531 -9.738281 2.65625 -9.285156 2.65625 -8.734375 C 2.65625 -8.316406 2.789062 -7.976562 3.0625 -7.71875 C 3.34375 -7.46875 3.679688 -7.269531 4.078125 -7.125 C 4.484375 -6.988281 5.035156 -6.84375 5.734375 -6.6875 C 6.628906 -6.46875 7.347656 -6.25 7.890625 -6.03125 C 8.441406 -5.8125 8.910156 -5.476562 9.296875 -5.03125 C 9.691406 -4.59375 9.890625 -4 9.890625 -3.25 C 9.890625 -2.625 9.71875 -2.050781 9.375 -1.53125 C 9.03125 -1.019531 8.507812 -0.613281 7.8125 -0.3125 C 7.125 -0.0078125 6.273438 0.140625 5.265625 0.140625 Z M 5.265625 0.140625 "/></g></g></g><path stroke-linecap="butt" transform="matrix(0.75, 0.000000000000000456, -0.000000000000000456, 0.75, 234.587795, 1071.057536)" fill="none" stroke-linejoin="miter" d="M -0.00247649 1.001411 L 374.007972 1.001411 " stroke="#000000" stroke-width="2" stroke-opacity="1" stroke-miterlimit="4"/></svg>