<svg xmlns="http://www.w3.org/2000/svg" xmlns:xlink="http://www.w3.org/1999/xlink" width="1000" zoomAndPan="magnify" viewBox="0 0 750 1124.99995" height="1500" preserveAspectRatio="xMidYMid meet" version="1.0"><defs><g/><clipPath id="a6b1ee6dbf"><path d="M 334.972656 1024.570312 L 415.027344 1024.570312 L 415.027344 1104.628906 L 334.972656 1104.628906 Z M 334.972656 1024.570312 " clip-rule="nonzero"/></clipPath><clipPath id="abd4015d4b"><path d="M 375 1024.570312 C 352.894531 1024.570312 334.972656 1042.492188 334.972656 1064.601562 C 334.972656 1086.707031 352.894531 1104.628906 375 1104.628906 C 397.105469 1104.628906 415.027344 1086.707031 415.027344 1064.601562 C 415.027344 1042.492188 397.105469 1024.570312 375 1024.570312 Z M 375 1024.570312 " clip-rule="nonzero"/></clipPath><clipPath id="a67fdc01b8"><path d="M 337.417969 1027.015625 L 412.582031 1027.015625 L 412.582031 1102.183594 L 337.417969 1102.183594 Z M 337.417969 1027.015625 " clip-rule="nonzero"/></clipPath><clipPath id="1410afd0fa"><path d="M 375 1027.015625 C 354.242188 1027.015625 337.417969 1043.84375 337.417969 1064.601562 C 337.417969 1085.355469 354.242188 1102.183594 375 1102.183594 C 395.757812 1102.183594 412.582031 1085.355469 412.582031 1064.601562 C 412.582031 1043.84375 395.757812 1027.015625 375 1027.015625 Z M 375 1027.015625 " clip-rule="nonzero"/></clipPath><clipPath id="b9a8e6af18"><path d="M 337.417969 1027.015625 L 412.417969 1027.015625 L 412.417969 1102.015625 L 337.417969 1102.015625 Z M 337.417969 1027.015625 " clip-rule="nonzero"/></clipPath><clipPath id="945f079be4"><path d="M 375 1027.015625 C 354.242188 1027.015625 337.417969 1043.84375 337.417969 1064.597656 C 337.417969 1085.355469 354.242188 1102.179688 375 1102.179688 C 395.753906 1102.179688 412.582031 1085.355469 412.582031 1064.597656 C 412.582031 1043.84375 395.753906 1027.015625 375 1027.015625 Z M 375 1027.015625 " clip-rule="nonzero"/></clipPath><clipPath id="d1197027b3"><path d="M 663 1067 L 677 1067 L 677 1098 L 663 1098 Z M 663 1067 " clip-rule="nonzero"/></clipPath><clipPath id="903f443ac4"><path d="M 673.878906 1059.625 L 681.894531 1094.71875 L 648.992188 1102.234375 L 640.976562 1067.140625 Z M 673.878906 1059.625 " clip-rule="nonzero"/></clipPath><clipPath id="08cca0cf3b"><path d="M 681.898438 1094.730469 L 673.882812 1059.636719 L 640.980469 1067.152344 L 648.996094 1102.246094 Z M 681.898438 1094.730469 " clip-rule="nonzero"/></clipPath><clipPath id="b173ebe295"><path d="M 646 1064 L 660 1064 L 660 1095 L 646 1095 Z M 646 1064 " clip-rule="nonzero"/></clipPath><clipPath id="3efea8ccc2"><path d="M 673.878906 1059.625 L 681.894531 1094.71875 L 648.992188 1102.234375 L 640.976562 1067.140625 Z M 673.878906 1059.625 " clip-rule="nonzero"/></clipPath><clipPath id="31f1eab83c"><path d="M 681.898438 1094.730469 L 673.882812 1059.636719 L 640.980469 1067.152344 L 648.996094 1102.246094 Z M 681.898438 1094.730469 " clip-rule="nonzero"/></clipPath></defs><rect x="-75" width="900" fill="#ffffff" y="-112.499995" height="1349.99994" fill-opacity="1"/><rect x="-75" width="900" fill="#000000" y="-112.499995" height="1349.99994" fill-opacity="1"/><g clip-path="url(#a6b1ee6dbf)"><g clip-path="url(#abd4015d4b)"><path fill="#ffffff" d="M 334.972656 1024.570312 L 415.027344 1024.570312 L 415.027344 1104.628906 L 334.972656 1104.628906 Z M 334.972656 1024.570312 " fill-opacity="1" fill-rule="nonzero"/></g></g><g clip-path="url(#a67fdc01b8)"><g clip-path="url(#1410afd0fa)"><path fill="#ffffff" d="M 337.417969 1027.015625 L 412.582031 1027.015625 L 412.582031 1102.183594 L 337.417969 1102.183594 Z M 337.417969 1027.015625 " fill-opacity="1" fill-rule="nonzero"/></g></g><g clip-path="url(#b9a8e6af18)"><g clip-path="url(#945f079be4)"><path stroke-linecap="butt" transform="matrix(0.75, 0, 0, 0.75, 337.416316, 1027.016148)" fill="none" stroke-linejoin="miter" d="M 50.111582 -0.00069675 C 22.434497 -0.00069675 0.00220312 22.436805 0.00220312 50.108683 C 0.00220312 77.785768 22.434497 100.218062 50.111582 100.218062 C 77.78346 100.218062 100.220962 77.785768 100.220962 50.108683 C 100.220962 22.436805 77.78346 -0.00069675 50.111582 -0.00069675 Z M 50.111582 -0.00069675 " stroke="#000000" stroke-width="10" stroke-opacity="1" stroke-miterlimit="4"/></g></g><g clip-path="url(#d1197027b3)"><g clip-path="url(#903f443ac4)"><g clip-path="url(#08cca0cf3b)"><path fill="#ffffff" d="M 667.316406 1090.457031 C 667.582031 1090.625 667.757812 1090.863281 667.84375 1091.167969 C 667.933594 1091.472656 667.910156 1091.765625 667.773438 1092.054688 C 668.789062 1091.488281 669.710938 1090.800781 670.535156 1089.984375 C 671.363281 1089.171875 672.066406 1088.257812 672.644531 1087.253906 C 673.222656 1086.246094 673.65625 1085.179688 673.945312 1084.054688 C 674.230469 1082.929688 674.363281 1081.789062 674.339844 1080.628906 C 674.316406 1079.464844 674.136719 1078.332031 673.804688 1077.21875 C 673.46875 1076.105469 672.992188 1075.058594 672.371094 1074.078125 C 671.753906 1073.09375 671.015625 1072.214844 670.15625 1071.433594 C 669.292969 1070.652344 668.347656 1070.003906 667.308594 1069.480469 C 667.15625 1069.40625 667.027344 1069.300781 666.917969 1069.171875 C 666.804688 1069.042969 666.722656 1068.898438 666.671875 1068.738281 C 666.617188 1068.578125 666.597656 1068.414062 666.613281 1068.242188 C 666.625 1068.074219 666.667969 1067.914062 666.746094 1067.761719 C 666.824219 1067.613281 666.925781 1067.480469 667.054688 1067.371094 C 667.183594 1067.261719 667.328125 1067.179688 667.488281 1067.125 C 667.648438 1067.074219 667.816406 1067.054688 667.984375 1067.066406 C 668.152344 1067.078125 668.3125 1067.125 668.464844 1067.199219 C 669.765625 1067.855469 670.949219 1068.679688 672.019531 1069.671875 C 673.085938 1070.664062 673.992188 1071.785156 674.738281 1073.035156 C 675.484375 1074.285156 676.042969 1075.617188 676.410156 1077.027344 C 676.777344 1078.4375 676.941406 1079.871094 676.902344 1081.328125 C 676.859375 1082.78125 676.617188 1084.203125 676.167969 1085.589844 C 675.722656 1086.980469 675.089844 1088.277344 674.273438 1089.480469 C 673.457031 1090.6875 672.488281 1091.757812 671.367188 1092.6875 C 670.242188 1093.617188 669.015625 1094.371094 667.679688 1094.953125 L 668.441406 1095.433594 C 668.582031 1095.523438 668.699219 1095.636719 668.796875 1095.777344 C 668.890625 1095.914062 668.957031 1096.066406 668.992188 1096.226562 C 669.027344 1096.390625 669.03125 1096.554688 669.003906 1096.722656 C 668.972656 1096.886719 668.914062 1097.039062 668.824219 1097.179688 C 668.738281 1097.324219 668.625 1097.441406 668.488281 1097.539062 C 668.351562 1097.636719 668.203125 1097.707031 668.039062 1097.746094 C 667.875 1097.78125 667.710938 1097.789062 667.546875 1097.761719 C 667.382812 1097.738281 667.226562 1097.679688 667.085938 1097.59375 L 664.027344 1095.671875 C 663.882812 1095.582031 663.761719 1095.46875 663.664062 1095.332031 C 663.566406 1095.195312 663.496094 1095.042969 663.460938 1094.875 C 663.421875 1094.710938 663.417969 1094.546875 663.445312 1094.378906 C 663.472656 1094.210938 663.535156 1094.058594 663.625 1093.914062 L 665.542969 1090.855469 C 665.636719 1090.710938 665.75 1090.589844 665.886719 1090.488281 C 666.027344 1090.390625 666.179688 1090.324219 666.347656 1090.285156 C 666.511719 1090.25 666.679688 1090.246094 666.847656 1090.273438 C 667.015625 1090.304688 667.171875 1090.363281 667.316406 1090.457031 Z M 667.316406 1090.457031 " fill-opacity="1" fill-rule="nonzero"/></g></g></g><g clip-path="url(#b173ebe295)"><g clip-path="url(#3efea8ccc2)"><g clip-path="url(#31f1eab83c)"><path fill="#ffffff" d="M 656.078125 1064.203125 L 659.136719 1066.125 C 659.28125 1066.214844 659.402344 1066.328125 659.5 1066.46875 C 659.597656 1066.605469 659.664062 1066.757812 659.703125 1066.921875 C 659.742188 1067.085938 659.746094 1067.253906 659.71875 1067.421875 C 659.6875 1067.585938 659.628906 1067.742188 659.539062 1067.886719 L 657.617188 1070.945312 C 657.527344 1071.085938 657.414062 1071.207031 657.277344 1071.304688 C 657.136719 1071.40625 656.988281 1071.472656 656.820312 1071.511719 C 656.65625 1071.546875 656.492188 1071.550781 656.324219 1071.523438 C 656.15625 1071.496094 656 1071.4375 655.859375 1071.347656 C 655.589844 1071.175781 655.414062 1070.9375 655.328125 1070.632812 C 655.238281 1070.328125 655.265625 1070.035156 655.398438 1069.75 C 654.382812 1070.3125 653.460938 1071 652.636719 1071.816406 C 651.808594 1072.632812 651.105469 1073.542969 650.527344 1074.550781 C 649.949219 1075.554688 649.515625 1076.621094 649.230469 1077.746094 C 648.941406 1078.871094 648.808594 1080.015625 648.832031 1081.175781 C 648.855469 1082.335938 649.035156 1083.472656 649.371094 1084.582031 C 649.703125 1085.695312 650.179688 1086.742188 650.800781 1087.726562 C 651.417969 1088.707031 652.160156 1089.585938 653.019531 1090.367188 C 653.878906 1091.148438 654.828125 1091.800781 655.863281 1092.320312 C 656.015625 1092.398438 656.144531 1092.5 656.257812 1092.628906 C 656.367188 1092.757812 656.449219 1092.902344 656.5 1093.0625 C 656.554688 1093.222656 656.574219 1093.390625 656.5625 1093.558594 C 656.546875 1093.726562 656.503906 1093.886719 656.425781 1094.039062 C 656.351562 1094.191406 656.246094 1094.320312 656.117188 1094.429688 C 655.988281 1094.542969 655.84375 1094.625 655.683594 1094.675781 C 655.523438 1094.730469 655.359375 1094.75 655.1875 1094.734375 C 655.019531 1094.722656 654.859375 1094.679688 654.707031 1094.601562 C 653.40625 1093.949219 652.222656 1093.125 651.15625 1092.132812 C 650.085938 1091.140625 649.179688 1090.019531 648.433594 1088.765625 C 647.6875 1087.515625 647.128906 1086.1875 646.761719 1084.777344 C 646.394531 1083.367188 646.230469 1081.933594 646.273438 1080.476562 C 646.3125 1079.019531 646.558594 1077.597656 647.003906 1076.210938 C 647.449219 1074.824219 648.082031 1073.527344 648.898438 1072.320312 C 649.714844 1071.113281 650.6875 1070.046875 651.808594 1069.113281 C 652.929688 1068.183594 654.15625 1067.429688 655.496094 1066.851562 L 654.730469 1066.371094 C 654.589844 1066.277344 654.472656 1066.164062 654.378906 1066.027344 C 654.28125 1065.886719 654.214844 1065.738281 654.179688 1065.574219 C 654.144531 1065.410156 654.140625 1065.246094 654.171875 1065.082031 C 654.199219 1064.917969 654.257812 1064.761719 654.347656 1064.621094 C 654.4375 1064.480469 654.546875 1064.359375 654.683594 1064.261719 C 654.820312 1064.164062 654.96875 1064.097656 655.132812 1064.058594 C 655.296875 1064.019531 655.460938 1064.011719 655.625 1064.039062 C 655.789062 1064.066406 655.945312 1064.121094 656.089844 1064.207031 Z M 656.078125 1064.203125 " fill-opacity="1" fill-rule="nonzero"/></g></g></g><g fill="#f9eb50" fill-opacity="1"><g transform="translate(338.852507, 1006.088797)"><g><path d="M 5.96875 -14.984375 C 7.894531 -14.984375 9.300781 -14.601562 10.1875 -13.84375 C 11.082031 -13.09375 11.53125 -12.015625 11.53125 -10.609375 C 11.53125 -9.972656 11.425781 -9.367188 11.21875 -8.796875 C 11.007812 -8.222656 10.671875 -7.71875 10.203125 -7.28125 C 9.742188 -6.851562 9.132812 -6.515625 8.375 -6.265625 C 7.625 -6.015625 6.703125 -5.890625 5.609375 -5.890625 L 3.796875 -5.890625 L 3.796875 0 L 2.046875 0 L 2.046875 -14.984375 Z M 5.796875 -13.5 L 3.796875 -13.5 L 3.796875 -7.390625 L 5.421875 -7.390625 C 6.378906 -7.390625 7.175781 -7.488281 7.8125 -7.6875 C 8.445312 -7.894531 8.925781 -8.226562 9.25 -8.6875 C 9.570312 -9.15625 9.734375 -9.769531 9.734375 -10.53125 C 9.734375 -11.53125 9.414062 -12.273438 8.78125 -12.765625 C 8.144531 -13.253906 7.148438 -13.5 5.796875 -13.5 Z M 5.796875 -13.5 "/></g></g></g><g fill="#f9eb50" fill-opacity="1"><g transform="translate(351.47122, 1006.088797)"><g><path d="M 13.40625 0 L 11.65625 0 L 11.65625 -7.0625 L 3.796875 -7.0625 L 3.796875 0 L 2.046875 0 L 2.046875 -14.984375 L 3.796875 -14.984375 L 3.796875 -8.59375 L 11.65625 -8.59375 L 11.65625 -14.984375 L 13.40625 -14.984375 Z M 13.40625 0 "/></g></g></g><g fill="#f9eb50" fill-opacity="1"><g transform="translate(366.937336, 1006.088797)"><g><path d="M 15.046875 -7.515625 C 15.046875 -6.359375 14.894531 -5.304688 14.59375 -4.359375 C 14.300781 -3.410156 13.863281 -2.597656 13.28125 -1.921875 C 12.707031 -1.242188 11.992188 -0.71875 11.140625 -0.34375 C 10.285156 0.0195312 9.296875 0.203125 8.171875 0.203125 C 7.015625 0.203125 6.003906 0.0195312 5.140625 -0.34375 C 4.273438 -0.71875 3.554688 -1.242188 2.984375 -1.921875 C 2.410156 -2.609375 1.984375 -3.425781 1.703125 -4.375 C 1.421875 -5.320312 1.28125 -6.375 1.28125 -7.53125 C 1.28125 -9.0625 1.53125 -10.40625 2.03125 -11.5625 C 2.539062 -12.71875 3.304688 -13.613281 4.328125 -14.25 C 5.359375 -14.894531 6.648438 -15.21875 8.203125 -15.21875 C 9.691406 -15.21875 10.941406 -14.898438 11.953125 -14.265625 C 12.960938 -13.628906 13.726562 -12.734375 14.25 -11.578125 C 14.78125 -10.429688 15.046875 -9.078125 15.046875 -7.515625 Z M 3.109375 -7.515625 C 3.109375 -6.242188 3.289062 -5.140625 3.65625 -4.203125 C 4.019531 -3.273438 4.570312 -2.554688 5.3125 -2.046875 C 6.0625 -1.546875 7.015625 -1.296875 8.171875 -1.296875 C 9.335938 -1.296875 10.289062 -1.546875 11.03125 -2.046875 C 11.769531 -2.554688 12.316406 -3.273438 12.671875 -4.203125 C 13.023438 -5.140625 13.203125 -6.242188 13.203125 -7.515625 C 13.203125 -9.441406 12.796875 -10.945312 11.984375 -12.03125 C 11.179688 -13.125 9.921875 -13.671875 8.203125 -13.671875 C 7.046875 -13.671875 6.09375 -13.421875 5.34375 -12.921875 C 4.59375 -12.429688 4.03125 -11.722656 3.65625 -10.796875 C 3.289062 -9.878906 3.109375 -8.785156 3.109375 -7.515625 Z M 3.109375 -7.515625 "/></g></g></g><g fill="#f9eb50" fill-opacity="1"><g transform="translate(383.253577, 1006.088797)"><g><path d="M 6.65625 0 L 4.890625 0 L 4.890625 -13.4375 L 0.1875 -13.4375 L 0.1875 -14.984375 L 11.34375 -14.984375 L 11.34375 -13.4375 L 6.65625 -13.4375 Z M 6.65625 0 "/></g></g></g><g fill="#f9eb50" fill-opacity="1"><g transform="translate(394.807073, 1006.088797)"><g><path d="M 15.046875 -7.515625 C 15.046875 -6.359375 14.894531 -5.304688 14.59375 -4.359375 C 14.300781 -3.410156 13.863281 -2.597656 13.28125 -1.921875 C 12.707031 -1.242188 11.992188 -0.71875 11.140625 -0.34375 C 10.285156 0.0195312 9.296875 0.203125 8.171875 0.203125 C 7.015625 0.203125 6.003906 0.0195312 5.140625 -0.34375 C 4.273438 -0.71875 3.554688 -1.242188 2.984375 -1.921875 C 2.410156 -2.609375 1.984375 -3.425781 1.703125 -4.375 C 1.421875 -5.320312 1.28125 -6.375 1.28125 -7.53125 C 1.28125 -9.0625 1.53125 -10.40625 2.03125 -11.5625 C 2.539062 -12.71875 3.304688 -13.613281 4.328125 -14.25 C 5.359375 -14.894531 6.648438 -15.21875 8.203125 -15.21875 C 9.691406 -15.21875 10.941406 -14.898438 11.953125 -14.265625 C 12.960938 -13.628906 13.726562 -12.734375 14.25 -11.578125 C 14.78125 -10.429688 15.046875 -9.078125 15.046875 -7.515625 Z M 3.109375 -7.515625 C 3.109375 -6.242188 3.289062 -5.140625 3.65625 -4.203125 C 4.019531 -3.273438 4.570312 -2.554688 5.3125 -2.046875 C 6.0625 -1.546875 7.015625 -1.296875 8.171875 -1.296875 C 9.335938 -1.296875 10.289062 -1.546875 11.03125 -2.046875 C 11.769531 -2.554688 12.316406 -3.273438 12.671875 -4.203125 C 13.023438 -5.140625 13.203125 -6.242188 13.203125 -7.515625 C 13.203125 -9.441406 12.796875 -10.945312 11.984375 -12.03125 C 11.179688 -13.125 9.921875 -13.671875 8.203125 -13.671875 C 7.046875 -13.671875 6.09375 -13.421875 5.34375 -12.921875 C 4.59375 -12.429688 4.03125 -11.722656 3.65625 -10.796875 C 3.289062 -9.878906 3.109375 -8.785156 3.109375 -7.515625 Z M 3.109375 -7.515625 "/></g></g></g><g fill="#ffffff" fill-opacity="1"><g transform="translate(465.529753, 1006.088797)"><g><path d="M 5.96875 -14.984375 C 7.894531 -14.984375 9.300781 -14.601562 10.1875 -13.84375 C 11.082031 -13.09375 11.53125 -12.015625 11.53125 -10.609375 C 11.53125 -9.972656 11.425781 -9.367188 11.21875 -8.796875 C 11.007812 -8.222656 10.671875 -7.71875 10.203125 -7.28125 C 9.742188 -6.851562 9.132812 -6.515625 8.375 -6.265625 C 7.625 -6.015625 6.703125 -5.890625 5.609375 -5.890625 L 3.796875 -5.890625 L 3.796875 0 L 2.046875 0 L 2.046875 -14.984375 Z M 5.796875 -13.5 L 3.796875 -13.5 L 3.796875 -7.390625 L 5.421875 -7.390625 C 6.378906 -7.390625 7.175781 -7.488281 7.8125 -7.6875 C 8.445312 -7.894531 8.925781 -8.226562 9.25 -8.6875 C 9.570312 -9.15625 9.734375 -9.769531 9.734375 -10.53125 C 9.734375 -11.53125 9.414062 -12.273438 8.78125 -12.765625 C 8.144531 -13.253906 7.148438 -13.5 5.796875 -13.5 Z M 5.796875 -13.5 "/></g></g></g><g fill="#ffffff" fill-opacity="1"><g transform="translate(478.148465, 1006.088797)"><g><path d="M 15.046875 -7.515625 C 15.046875 -6.359375 14.894531 -5.304688 14.59375 -4.359375 C 14.300781 -3.410156 13.863281 -2.597656 13.28125 -1.921875 C 12.707031 -1.242188 11.992188 -0.71875 11.140625 -0.34375 C 10.285156 0.0195312 9.296875 0.203125 8.171875 0.203125 C 7.015625 0.203125 6.003906 0.0195312 5.140625 -0.34375 C 4.273438 -0.71875 3.554688 -1.242188 2.984375 -1.921875 C 2.410156 -2.609375 1.984375 -3.425781 1.703125 -4.375 C 1.421875 -5.320312 1.28125 -6.375 1.28125 -7.53125 C 1.28125 -9.0625 1.53125 -10.40625 2.03125 -11.5625 C 2.539062 -12.71875 3.304688 -13.613281 4.328125 -14.25 C 5.359375 -14.894531 6.648438 -15.21875 8.203125 -15.21875 C 9.691406 -15.21875 10.941406 -14.898438 11.953125 -14.265625 C 12.960938 -13.628906 13.726562 -12.734375 14.25 -11.578125 C 14.78125 -10.429688 15.046875 -9.078125 15.046875 -7.515625 Z M 3.109375 -7.515625 C 3.109375 -6.242188 3.289062 -5.140625 3.65625 -4.203125 C 4.019531 -3.273438 4.570312 -2.554688 5.3125 -2.046875 C 6.0625 -1.546875 7.015625 -1.296875 8.171875 -1.296875 C 9.335938 -1.296875 10.289062 -1.546875 11.03125 -2.046875 C 11.769531 -2.554688 12.316406 -3.273438 12.671875 -4.203125 C 13.023438 -5.140625 13.203125 -6.242188 13.203125 -7.515625 C 13.203125 -9.441406 12.796875 -10.945312 11.984375 -12.03125 C 11.179688 -13.125 9.921875 -13.671875 8.203125 -13.671875 C 7.046875 -13.671875 6.09375 -13.421875 5.34375 -12.921875 C 4.59375 -12.429688 4.03125 -11.722656 3.65625 -10.796875 C 3.289062 -9.878906 3.109375 -8.785156 3.109375 -7.515625 Z M 3.109375 -7.515625 "/></g></g></g><g fill="#ffffff" fill-opacity="1"><g transform="translate(494.464706, 1006.088797)"><g><path d="M 6.09375 -14.984375 C 7.320312 -14.984375 8.335938 -14.828125 9.140625 -14.515625 C 9.941406 -14.210938 10.539062 -13.75 10.9375 -13.125 C 11.332031 -12.507812 11.53125 -11.722656 11.53125 -10.765625 C 11.53125 -9.960938 11.382812 -9.296875 11.09375 -8.765625 C 10.8125 -8.242188 10.4375 -7.816406 9.96875 -7.484375 C 9.507812 -7.160156 9.019531 -6.910156 8.5 -6.734375 L 12.609375 0 L 10.578125 0 L 6.90625 -6.25 L 3.796875 -6.25 L 3.796875 0 L 2.046875 0 L 2.046875 -14.984375 Z M 6 -13.46875 L 3.796875 -13.46875 L 3.796875 -7.71875 L 6.171875 -7.71875 C 7.390625 -7.71875 8.285156 -7.96875 8.859375 -8.46875 C 9.441406 -8.96875 9.734375 -9.703125 9.734375 -10.671875 C 9.734375 -11.691406 9.425781 -12.410156 8.8125 -12.828125 C 8.207031 -13.253906 7.269531 -13.46875 6 -13.46875 Z M 6 -13.46875 "/></g></g></g><g fill="#ffffff" fill-opacity="1"><g transform="translate(507.411177, 1006.088797)"><g><path d="M 6.65625 0 L 4.890625 0 L 4.890625 -13.4375 L 0.1875 -13.4375 L 0.1875 -14.984375 L 11.34375 -14.984375 L 11.34375 -13.4375 L 6.65625 -13.4375 Z M 6.65625 0 "/></g></g></g><g fill="#ffffff" fill-opacity="1"><g transform="translate(518.964673, 1006.088797)"><g><path d="M 6.09375 -14.984375 C 7.320312 -14.984375 8.335938 -14.828125 9.140625 -14.515625 C 9.941406 -14.210938 10.539062 -13.75 10.9375 -13.125 C 11.332031 -12.507812 11.53125 -11.722656 11.53125 -10.765625 C 11.53125 -9.960938 11.382812 -9.296875 11.09375 -8.765625 C 10.8125 -8.242188 10.4375 -7.816406 9.96875 -7.484375 C 9.507812 -7.160156 9.019531 -6.910156 8.5 -6.734375 L 12.609375 0 L 10.578125 0 L 6.90625 -6.25 L 3.796875 -6.25 L 3.796875 0 L 2.046875 0 L 2.046875 -14.984375 Z M 6 -13.46875 L 3.796875 -13.46875 L 3.796875 -7.71875 L 6.171875 -7.71875 C 7.390625 -7.71875 8.285156 -7.96875 8.859375 -8.46875 C 9.441406 -8.96875 9.734375 -9.703125 9.734375 -10.671875 C 9.734375 -11.691406 9.425781 -12.410156 8.8125 -12.828125 C 8.207031 -13.253906 7.269531 -13.46875 6 -13.46875 Z M 6 -13.46875 "/></g></g></g><g fill="#ffffff" fill-opacity="1"><g transform="translate(531.911144, 1006.088797)"><g><path d="M 11.4375 0 L 9.59375 -4.75 L 3.59375 -4.75 L 1.765625 0 L 0 0 L 5.859375 -15.046875 L 7.421875 -15.046875 L 13.25 0 Z M 9.078125 -6.296875 L 7.328125 -11.03125 C 7.285156 -11.144531 7.21875 -11.34375 7.125 -11.625 C 7.03125 -11.90625 6.9375 -12.195312 6.84375 -12.5 C 6.75 -12.800781 6.671875 -13.046875 6.609375 -13.234375 C 6.535156 -12.953125 6.457031 -12.671875 6.375 -12.390625 C 6.300781 -12.117188 6.226562 -11.863281 6.15625 -11.625 C 6.082031 -11.382812 6.019531 -11.1875 5.96875 -11.03125 L 4.1875 -6.296875 Z M 9.078125 -6.296875 "/></g></g></g><g fill="#ffffff" fill-opacity="1"><g transform="translate(545.175132, 1006.088797)"><g><path d="M 2.046875 0 L 2.046875 -14.984375 L 3.796875 -14.984375 L 3.796875 0 Z M 2.046875 0 "/></g></g></g><g fill="#ffffff" fill-opacity="1"><g transform="translate(551.03382, 1006.088797)"><g><path d="M 6.65625 0 L 4.890625 0 L 4.890625 -13.4375 L 0.1875 -13.4375 L 0.1875 -14.984375 L 11.34375 -14.984375 L 11.34375 -13.4375 L 6.65625 -13.4375 Z M 6.65625 0 "/></g></g></g><g fill="#ffffff" fill-opacity="1"><g transform="translate(616.992156, 1006.088797)"><g><path d="M 5.96875 -14.984375 C 7.894531 -14.984375 9.300781 -14.601562 10.1875 -13.84375 C 11.082031 -13.09375 11.53125 -12.015625 11.53125 -10.609375 C 11.53125 -9.972656 11.425781 -9.367188 11.21875 -8.796875 C 11.007812 -8.222656 10.671875 -7.71875 10.203125 -7.28125 C 9.742188 -6.851562 9.132812 -6.515625 8.375 -6.265625 C 7.625 -6.015625 6.703125 -5.890625 5.609375 -5.890625 L 3.796875 -5.890625 L 3.796875 0 L 2.046875 0 L 2.046875 -14.984375 Z M 5.796875 -13.5 L 3.796875 -13.5 L 3.796875 -7.390625 L 5.421875 -7.390625 C 6.378906 -7.390625 7.175781 -7.488281 7.8125 -7.6875 C 8.445312 -7.894531 8.925781 -8.226562 9.25 -8.6875 C 9.570312 -9.15625 9.734375 -9.769531 9.734375 -10.53125 C 9.734375 -11.53125 9.414062 -12.273438 8.78125 -12.765625 C 8.144531 -13.253906 7.148438 -13.5 5.796875 -13.5 Z M 5.796875 -13.5 "/></g></g></g><g fill="#ffffff" fill-opacity="1"><g transform="translate(629.610868, 1006.088797)"><g><path d="M 11.4375 0 L 9.59375 -4.75 L 3.59375 -4.75 L 1.765625 0 L 0 0 L 5.859375 -15.046875 L 7.421875 -15.046875 L 13.25 0 Z M 9.078125 -6.296875 L 7.328125 -11.03125 C 7.285156 -11.144531 7.21875 -11.34375 7.125 -11.625 C 7.03125 -11.90625 6.9375 -12.195312 6.84375 -12.5 C 6.75 -12.800781 6.671875 -13.046875 6.609375 -13.234375 C 6.535156 -12.953125 6.457031 -12.671875 6.375 -12.390625 C 6.300781 -12.117188 6.226562 -11.863281 6.15625 -11.625 C 6.082031 -11.382812 6.019531 -11.1875 5.96875 -11.03125 L 4.1875 -6.296875 Z M 9.078125 -6.296875 "/></g></g></g><g fill="#ffffff" fill-opacity="1"><g transform="translate(642.874855, 1006.088797)"><g><path d="M 13.765625 0 L 11.75 0 L 3.59375 -12.578125 L 3.5 -12.578125 C 3.519531 -12.242188 3.539062 -11.863281 3.5625 -11.4375 C 3.59375 -11.007812 3.617188 -10.554688 3.640625 -10.078125 C 3.660156 -9.597656 3.671875 -9.109375 3.671875 -8.609375 L 3.671875 0 L 2.046875 0 L 2.046875 -14.984375 L 4.046875 -14.984375 L 12.1875 -2.4375 L 12.25 -2.4375 C 12.238281 -2.675781 12.222656 -3.015625 12.203125 -3.453125 C 12.179688 -3.898438 12.160156 -4.375 12.140625 -4.875 C 12.128906 -5.382812 12.125 -5.859375 12.125 -6.296875 L 12.125 -14.984375 L 13.765625 -14.984375 Z M 13.765625 0 "/></g></g></g><g fill="#ffffff" fill-opacity="1"><g transform="translate(658.66873, 1006.088797)"><g><path d="M 15.046875 -7.515625 C 15.046875 -6.359375 14.894531 -5.304688 14.59375 -4.359375 C 14.300781 -3.410156 13.863281 -2.597656 13.28125 -1.921875 C 12.707031 -1.242188 11.992188 -0.71875 11.140625 -0.34375 C 10.285156 0.0195312 9.296875 0.203125 8.171875 0.203125 C 7.015625 0.203125 6.003906 0.0195312 5.140625 -0.34375 C 4.273438 -0.71875 3.554688 -1.242188 2.984375 -1.921875 C 2.410156 -2.609375 1.984375 -3.425781 1.703125 -4.375 C 1.421875 -5.320312 1.28125 -6.375 1.28125 -7.53125 C 1.28125 -9.0625 1.53125 -10.40625 2.03125 -11.5625 C 2.539062 -12.71875 3.304688 -13.613281 4.328125 -14.25 C 5.359375 -14.894531 6.648438 -15.21875 8.203125 -15.21875 C 9.691406 -15.21875 10.941406 -14.898438 11.953125 -14.265625 C 12.960938 -13.628906 13.726562 -12.734375 14.25 -11.578125 C 14.78125 -10.429688 15.046875 -9.078125 15.046875 -7.515625 Z M 3.109375 -7.515625 C 3.109375 -6.242188 3.289062 -5.140625 3.65625 -4.203125 C 4.019531 -3.273438 4.570312 -2.554688 5.3125 -2.046875 C 6.0625 -1.546875 7.015625 -1.296875 8.171875 -1.296875 C 9.335938 -1.296875 10.289062 -1.546875 11.03125 -2.046875 C 11.769531 -2.554688 12.316406 -3.273438 12.671875 -4.203125 C 13.023438 -5.140625 13.203125 -6.242188 13.203125 -7.515625 C 13.203125 -9.441406 12.796875 -10.945312 11.984375 -12.03125 C 11.179688 -13.125 9.921875 -13.671875 8.203125 -13.671875 C 7.046875 -13.671875 6.09375 -13.421875 5.34375 -12.921875 C 4.59375 -12.429688 4.03125 -11.722656 3.65625 -10.796875 C 3.289062 -9.878906 3.109375 -8.785156 3.109375 -7.515625 Z M 3.109375 -7.515625 "/></g></g></g><g fill="#ffffff" fill-opacity="1"><g transform="translate(216.501459, 1006.088797)"><g><path d="M 12.515625 -14.984375 L 7.125 0 L 5.375 0 L 0 -14.984375 L 1.828125 -14.984375 L 5.328125 -5.109375 C 5.472656 -4.710938 5.597656 -4.332031 5.703125 -3.96875 C 5.816406 -3.613281 5.914062 -3.265625 6 -2.921875 C 6.09375 -2.585938 6.175781 -2.265625 6.25 -1.953125 C 6.320312 -2.265625 6.398438 -2.585938 6.484375 -2.921875 C 6.578125 -3.265625 6.679688 -3.617188 6.796875 -3.984375 C 6.910156 -4.359375 7.039062 -4.742188 7.1875 -5.140625 L 10.671875 -14.984375 Z M 12.515625 -14.984375 "/></g></g></g><g fill="#ffffff" fill-opacity="1"><g transform="translate(229.007504, 1006.088797)"><g><path d="M 2.046875 0 L 2.046875 -14.984375 L 3.796875 -14.984375 L 3.796875 0 Z M 2.046875 0 "/></g></g></g><g fill="#ffffff" fill-opacity="1"><g transform="translate(234.866192, 1006.088797)"><g><path d="M 13.9375 -7.640625 C 13.9375 -5.953125 13.628906 -4.539062 13.015625 -3.40625 C 12.398438 -2.28125 11.507812 -1.429688 10.34375 -0.859375 C 9.1875 -0.285156 7.773438 0 6.109375 0 L 2.046875 0 L 2.046875 -14.984375 L 6.5625 -14.984375 C 8.09375 -14.984375 9.40625 -14.703125 10.5 -14.140625 C 11.601562 -13.585938 12.453125 -12.765625 13.046875 -11.671875 C 13.640625 -10.585938 13.9375 -9.242188 13.9375 -7.640625 Z M 12.109375 -7.578125 C 12.109375 -8.921875 11.882812 -10.03125 11.4375 -10.90625 C 10.988281 -11.78125 10.332031 -12.429688 9.46875 -12.859375 C 8.601562 -13.285156 7.546875 -13.5 6.296875 -13.5 L 3.796875 -13.5 L 3.796875 -1.5 L 5.90625 -1.5 C 7.96875 -1.5 9.515625 -2.003906 10.546875 -3.015625 C 11.585938 -4.035156 12.109375 -5.554688 12.109375 -7.578125 Z M 12.109375 -7.578125 "/></g></g></g><g fill="#ffffff" fill-opacity="1"><g transform="translate(250.08649, 1006.088797)"><g><path d="M 10.390625 0 L 2.046875 0 L 2.046875 -14.984375 L 10.390625 -14.984375 L 10.390625 -13.4375 L 3.796875 -13.4375 L 3.796875 -8.59375 L 10.015625 -8.59375 L 10.015625 -7.078125 L 3.796875 -7.078125 L 3.796875 -1.53125 L 10.390625 -1.53125 Z M 10.390625 0 "/></g></g></g><g fill="#ffffff" fill-opacity="1"><g transform="translate(261.742411, 1006.088797)"><g><path d="M 15.046875 -7.515625 C 15.046875 -6.359375 14.894531 -5.304688 14.59375 -4.359375 C 14.300781 -3.410156 13.863281 -2.597656 13.28125 -1.921875 C 12.707031 -1.242188 11.992188 -0.71875 11.140625 -0.34375 C 10.285156 0.0195312 9.296875 0.203125 8.171875 0.203125 C 7.015625 0.203125 6.003906 0.0195312 5.140625 -0.34375 C 4.273438 -0.71875 3.554688 -1.242188 2.984375 -1.921875 C 2.410156 -2.609375 1.984375 -3.425781 1.703125 -4.375 C 1.421875 -5.320312 1.28125 -6.375 1.28125 -7.53125 C 1.28125 -9.0625 1.53125 -10.40625 2.03125 -11.5625 C 2.539062 -12.71875 3.304688 -13.613281 4.328125 -14.25 C 5.359375 -14.894531 6.648438 -15.21875 8.203125 -15.21875 C 9.691406 -15.21875 10.941406 -14.898438 11.953125 -14.265625 C 12.960938 -13.628906 13.726562 -12.734375 14.25 -11.578125 C 14.78125 -10.429688 15.046875 -9.078125 15.046875 -7.515625 Z M 3.109375 -7.515625 C 3.109375 -6.242188 3.289062 -5.140625 3.65625 -4.203125 C 4.019531 -3.273438 4.570312 -2.554688 5.3125 -2.046875 C 6.0625 -1.546875 7.015625 -1.296875 8.171875 -1.296875 C 9.335938 -1.296875 10.289062 -1.546875 11.03125 -2.046875 C 11.769531 -2.554688 12.316406 -3.273438 12.671875 -4.203125 C 13.023438 -5.140625 13.203125 -6.242188 13.203125 -7.515625 C 13.203125 -9.441406 12.796875 -10.945312 11.984375 -12.03125 C 11.179688 -13.125 9.921875 -13.671875 8.203125 -13.671875 C 7.046875 -13.671875 6.09375 -13.421875 5.34375 -12.921875 C 4.59375 -12.429688 4.03125 -11.722656 3.65625 -10.796875 C 3.289062 -9.878906 3.109375 -8.785156 3.109375 -7.515625 Z M 3.109375 -7.515625 "/></g></g></g><g fill="#ffffff" fill-opacity="1"><g transform="translate(75.00001, 1006.088797)"><g><path d="M 10.5 -3.984375 C 10.5 -3.097656 10.28125 -2.34375 9.84375 -1.71875 C 9.40625 -1.09375 8.785156 -0.613281 7.984375 -0.28125 C 7.191406 0.0390625 6.257812 0.203125 5.1875 0.203125 C 4.625 0.203125 4.085938 0.175781 3.578125 0.125 C 3.078125 0.0703125 2.613281 -0.00390625 2.1875 -0.109375 C 1.769531 -0.210938 1.398438 -0.335938 1.078125 -0.484375 L 1.078125 -2.15625 C 1.585938 -1.945312 2.210938 -1.75 2.953125 -1.5625 C 3.691406 -1.382812 4.460938 -1.296875 5.265625 -1.296875 C 6.015625 -1.296875 6.648438 -1.394531 7.171875 -1.59375 C 7.691406 -1.800781 8.085938 -2.09375 8.359375 -2.46875 C 8.628906 -2.851562 8.765625 -3.3125 8.765625 -3.84375 C 8.765625 -4.351562 8.648438 -4.78125 8.421875 -5.125 C 8.191406 -5.46875 7.816406 -5.78125 7.296875 -6.0625 C 6.773438 -6.351562 6.066406 -6.660156 5.171875 -6.984375 C 4.535156 -7.203125 3.972656 -7.445312 3.484375 -7.71875 C 2.992188 -7.988281 2.582031 -8.296875 2.25 -8.640625 C 1.925781 -8.984375 1.679688 -9.378906 1.515625 -9.828125 C 1.347656 -10.273438 1.265625 -10.789062 1.265625 -11.375 C 1.265625 -12.175781 1.46875 -12.859375 1.875 -13.421875 C 2.28125 -13.992188 2.84375 -14.429688 3.5625 -14.734375 C 4.289062 -15.035156 5.125 -15.1875 6.0625 -15.1875 C 6.851562 -15.1875 7.585938 -15.113281 8.265625 -14.96875 C 8.953125 -14.820312 9.578125 -14.617188 10.140625 -14.359375 L 9.59375 -12.875 C 9.0625 -13.09375 8.492188 -13.273438 7.890625 -13.421875 C 7.285156 -13.578125 6.660156 -13.65625 6.015625 -13.65625 C 5.367188 -13.65625 4.828125 -13.5625 4.390625 -13.375 C 3.953125 -13.1875 3.613281 -12.921875 3.375 -12.578125 C 3.144531 -12.234375 3.03125 -11.828125 3.03125 -11.359375 C 3.03125 -10.835938 3.140625 -10.398438 3.359375 -10.046875 C 3.585938 -9.703125 3.945312 -9.394531 4.4375 -9.125 C 4.925781 -8.851562 5.570312 -8.570312 6.375 -8.28125 C 7.25 -7.957031 7.992188 -7.613281 8.609375 -7.25 C 9.234375 -6.894531 9.703125 -6.457031 10.015625 -5.9375 C 10.335938 -5.425781 10.5 -4.773438 10.5 -3.984375 Z M 10.5 -3.984375 "/></g></g></g><g fill="#ffffff" fill-opacity="1"><g transform="translate(86.502294, 1006.088797)"><g><path d="M 2.046875 0 L 2.046875 -14.984375 L 3.796875 -14.984375 L 3.796875 -1.5625 L 10.4375 -1.5625 L 10.4375 0 Z M 2.046875 0 "/></g></g></g><g fill="#ffffff" fill-opacity="1"><g transform="translate(97.451485, 1006.088797)"><g><path d="M 15.046875 -7.515625 C 15.046875 -6.359375 14.894531 -5.304688 14.59375 -4.359375 C 14.300781 -3.410156 13.863281 -2.597656 13.28125 -1.921875 C 12.707031 -1.242188 11.992188 -0.71875 11.140625 -0.34375 C 10.285156 0.0195312 9.296875 0.203125 8.171875 0.203125 C 7.015625 0.203125 6.003906 0.0195312 5.140625 -0.34375 C 4.273438 -0.71875 3.554688 -1.242188 2.984375 -1.921875 C 2.410156 -2.609375 1.984375 -3.425781 1.703125 -4.375 C 1.421875 -5.320312 1.28125 -6.375 1.28125 -7.53125 C 1.28125 -9.0625 1.53125 -10.40625 2.03125 -11.5625 C 2.539062 -12.71875 3.304688 -13.613281 4.328125 -14.25 C 5.359375 -14.894531 6.648438 -15.21875 8.203125 -15.21875 C 9.691406 -15.21875 10.941406 -14.898438 11.953125 -14.265625 C 12.960938 -13.628906 13.726562 -12.734375 14.25 -11.578125 C 14.78125 -10.429688 15.046875 -9.078125 15.046875 -7.515625 Z M 3.109375 -7.515625 C 3.109375 -6.242188 3.289062 -5.140625 3.65625 -4.203125 C 4.019531 -3.273438 4.570312 -2.554688 5.3125 -2.046875 C 6.0625 -1.546875 7.015625 -1.296875 8.171875 -1.296875 C 9.335938 -1.296875 10.289062 -1.546875 11.03125 -2.046875 C 11.769531 -2.554688 12.316406 -3.273438 12.671875 -4.203125 C 13.023438 -5.140625 13.203125 -6.242188 13.203125 -7.515625 C 13.203125 -9.441406 12.796875 -10.945312 11.984375 -12.03125 C 11.179688 -13.125 9.921875 -13.671875 8.203125 -13.671875 C 7.046875 -13.671875 6.09375 -13.421875 5.34375 -12.921875 C 4.59375 -12.429688 4.03125 -11.722656 3.65625 -10.796875 C 3.289062 -9.878906 3.109375 -8.785156 3.109375 -7.515625 Z M 3.109375 -7.515625 "/></g></g></g><g fill="#ffffff" fill-opacity="1"><g transform="translate(113.767726, 1006.088797)"><g><path d="M 0.84375 -4.875 L 0.84375 -6.390625 L 5.921875 -6.390625 L 5.921875 -4.875 Z M 0.84375 -4.875 "/></g></g></g><g fill="#ffffff" fill-opacity="1"><g transform="translate(120.517508, 1006.088797)"><g><path d="M 8.640625 0 L 3.609375 -13.265625 L 3.53125 -13.265625 C 3.550781 -12.984375 3.570312 -12.640625 3.59375 -12.234375 C 3.613281 -11.828125 3.628906 -11.382812 3.640625 -10.90625 C 3.660156 -10.4375 3.671875 -9.957031 3.671875 -9.46875 L 3.671875 0 L 2.046875 0 L 2.046875 -14.984375 L 4.625 -14.984375 L 9.375 -2.515625 L 9.453125 -2.515625 L 14.265625 -14.984375 L 16.828125 -14.984375 L 16.828125 0 L 15.109375 0 L 15.109375 -9.59375 C 15.109375 -10.03125 15.113281 -10.472656 15.125 -10.921875 C 15.132812 -11.367188 15.148438 -11.789062 15.171875 -12.1875 C 15.191406 -12.59375 15.210938 -12.941406 15.234375 -13.234375 L 15.15625 -13.234375 L 10.0625 0 Z M 8.640625 0 "/></g></g></g><g fill="#ffffff" fill-opacity="1"><g transform="translate(139.384122, 1006.088797)"><g><path d="M 15.046875 -7.515625 C 15.046875 -6.359375 14.894531 -5.304688 14.59375 -4.359375 C 14.300781 -3.410156 13.863281 -2.597656 13.28125 -1.921875 C 12.707031 -1.242188 11.992188 -0.71875 11.140625 -0.34375 C 10.285156 0.0195312 9.296875 0.203125 8.171875 0.203125 C 7.015625 0.203125 6.003906 0.0195312 5.140625 -0.34375 C 4.273438 -0.71875 3.554688 -1.242188 2.984375 -1.921875 C 2.410156 -2.609375 1.984375 -3.425781 1.703125 -4.375 C 1.421875 -5.320312 1.28125 -6.375 1.28125 -7.53125 C 1.28125 -9.0625 1.53125 -10.40625 2.03125 -11.5625 C 2.539062 -12.71875 3.304688 -13.613281 4.328125 -14.25 C 5.359375 -14.894531 6.648438 -15.21875 8.203125 -15.21875 C 9.691406 -15.21875 10.941406 -14.898438 11.953125 -14.265625 C 12.960938 -13.628906 13.726562 -12.734375 14.25 -11.578125 C 14.78125 -10.429688 15.046875 -9.078125 15.046875 -7.515625 Z M 3.109375 -7.515625 C 3.109375 -6.242188 3.289062 -5.140625 3.65625 -4.203125 C 4.019531 -3.273438 4.570312 -2.554688 5.3125 -2.046875 C 6.0625 -1.546875 7.015625 -1.296875 8.171875 -1.296875 C 9.335938 -1.296875 10.289062 -1.546875 11.03125 -2.046875 C 11.769531 -2.554688 12.316406 -3.273438 12.671875 -4.203125 C 13.023438 -5.140625 13.203125 -6.242188 13.203125 -7.515625 C 13.203125 -9.441406 12.796875 -10.945312 11.984375 -12.03125 C 11.179688 -13.125 9.921875 -13.671875 8.203125 -13.671875 C 7.046875 -13.671875 6.09375 -13.421875 5.34375 -12.921875 C 4.59375 -12.429688 4.03125 -11.722656 3.65625 -10.796875 C 3.289062 -9.878906 3.109375 -8.785156 3.109375 -7.515625 Z M 3.109375 -7.515625 "/></g></g></g></svg>